<svg width="64" height="64" viewBox="0 0 64 64" fill="none" xmlns="http://www.w3.org/2000/svg">
<path d="M22.2799 34.651C22.1809 34.638 22.0839 34.615 21.9899 34.597C22.0429 34.278 22.0969 34.001 22.1339 33.721C22.3099 32.364 22.1339 31.062 21.3019 29.949C19.7539 27.879 17.6169 27.055 15.2009 26.907C12.7839 27.055 10.6479 27.879 9.09988 29.949C8.26788 31.062 8.09187 32.364 8.26787 33.721C8.30487 34.001 8.35887 34.278 8.41187 34.597C8.31687 34.615 8.21987 34.638 8.12187 34.651C7.47087 34.743 7.17188 35.025 7.17188 35.682C7.17288 36.559 7.35188 37.41 7.76988 38.193C8.05788 38.733 8.55387 38.919 9.15687 38.936C9.20487 39.144 9.23888 39.349 9.29988 39.545C10.0249 41.881 12.2689 44.943 14.9529 45.024C15.0359 45.027 15.1189 45.027 15.2019 45.024C15.2849 45.027 15.3679 45.027 15.4509 45.024C18.1349 44.943 20.3799 41.881 21.1039 39.545C21.1649 39.349 21.1989 39.144 21.2469 38.936C21.8489 38.919 22.3449 38.734 22.6339 38.193C23.0519 37.411 23.2309 36.559 23.2319 35.682C23.2289 35.025 22.9299 34.743 22.2799 34.651Z" fill="url(#paint0_linear_309_364)"/>
<path d="M29.1339 51.7731C28.6949 50.8011 27.7899 50.0731 26.9019 49.4111C25.8889 48.6511 24.7569 48.0361 23.7809 47.5351L23.5229 47.4011C22.4889 46.8641 21.4249 46.3111 20.2779 46.1191C20.2519 46.1141 20.2209 46.1141 20.1949 46.1091C20.0709 46.2431 17.4039 54.2071 17.3269 54.2071C17.2439 53.9901 16.5729 50.3001 16.5309 49.9391L16.5159 49.7841V49.7691C16.5159 49.7481 16.5209 49.7171 16.5259 49.7021L16.5309 49.6711C16.5519 49.6241 16.5719 49.5731 16.6029 49.5311L16.6289 49.4951C16.8279 49.1861 17.0369 48.8681 17.2369 48.5491C17.2769 48.4841 17.2889 48.3731 17.2639 48.3011C17.1949 48.1051 17.1269 47.9081 17.0579 47.7121L16.9799 47.4951C16.8969 47.2621 16.8149 47.0301 16.7369 46.7971C16.7109 46.7251 16.6719 46.7221 16.5869 46.6831C16.3369 46.5681 13.9919 46.5691 13.8069 46.6831C13.7279 46.7321 13.6829 46.7241 13.6569 46.7971C13.5789 47.0301 13.4969 47.2621 13.4139 47.4951L13.3359 47.7121C13.2669 47.9081 13.1979 48.1051 13.1299 48.3011C13.1049 48.3731 13.1169 48.4841 13.1569 48.5491C13.3569 48.8681 13.5659 49.1861 13.7649 49.4951L13.7909 49.5311C13.8219 49.5721 13.8429 49.6241 13.8629 49.6711L13.8679 49.7021C13.8729 49.7171 13.8779 49.7481 13.8779 49.7691V49.7841L13.8629 49.9391C13.8219 50.3011 13.1499 53.9901 13.0669 54.2071C12.9899 54.2071 10.3229 46.2441 10.1989 46.1091C10.1729 46.1141 10.1419 46.1141 10.1159 46.1191C8.96887 46.3101 7.90387 46.8631 6.87087 47.4011L6.61287 47.5351C5.63587 48.0361 4.50487 48.6511 3.49187 49.4111C2.60287 50.0721 1.69887 50.8011 1.25987 51.7731C0.871867 52.6311 0.908867 53.6441 0.939867 54.6201L0.949867 54.9251C0.954867 55.0801 0.959867 55.2871 0.959867 55.4831C0.954867 56.0311 1.36787 56.2791 1.77087 56.5221C1.82787 56.5531 1.88487 56.5841 1.93587 56.6201C2.44187 56.9351 2.97987 57.2611 3.54287 57.5141C5.34587 58.3151 7.42387 58.8781 10.0699 59.2971C10.9689 59.4371 11.8059 59.5401 12.6429 59.6071C13.4749 59.6791 14.2659 59.7101 15.0669 59.7101H15.1959H15.3249C16.1259 59.7101 16.9169 59.6791 17.7489 59.6071C18.5859 59.5401 19.4229 59.4361 20.3219 59.2971C22.9679 58.8781 25.0449 58.3151 26.8489 57.5141C27.4119 57.2611 27.9499 56.9351 28.4559 56.6201C28.5079 56.5841 28.5649 56.5531 28.6209 56.5221C29.0239 56.2791 29.4369 56.0311 29.4319 55.4831C29.4319 55.2871 29.4369 55.0801 29.4419 54.9251L29.4519 54.6201C29.4859 53.6441 29.5219 52.6311 29.1339 51.7731Z" fill="url(#paint1_linear_309_364)"/>
<path d="M55.8849 34.651C55.7859 34.638 55.6889 34.615 55.5949 34.597C55.6479 34.278 55.7019 34.001 55.7389 33.721C55.9149 32.364 55.7389 31.062 54.9069 29.949C53.3589 27.879 51.2219 27.055 48.8059 26.907C46.3889 27.055 44.2529 27.879 42.7049 29.949C41.8729 31.062 41.6969 32.364 41.8729 33.721C41.9099 34.001 41.9639 34.278 42.0169 34.597C41.9219 34.615 41.8249 34.638 41.7269 34.651C41.0759 34.743 40.7769 35.025 40.7769 35.682C40.7779 36.559 40.9569 37.41 41.3749 38.193C41.6629 38.733 42.1589 38.919 42.7619 38.936C42.8099 39.144 42.8439 39.349 42.9049 39.545C43.6299 41.881 45.8739 44.943 48.5579 45.024C48.6409 45.027 48.7239 45.027 48.8069 45.024C48.8899 45.027 48.9729 45.027 49.0559 45.024C51.7399 44.943 53.9849 41.881 54.7089 39.545C54.7699 39.349 54.8039 39.144 54.8519 38.936C55.4539 38.919 55.9499 38.734 56.2389 38.193C56.6569 37.411 56.8359 36.559 56.8369 35.682C56.8349 35.025 56.5359 34.743 55.8849 34.651Z" fill="url(#paint2_linear_309_364)"/>
<path d="M62.7398 51.7731C62.3008 50.8011 61.3958 50.0731 60.5078 49.4111C59.4948 48.6511 58.3628 48.0361 57.3868 47.5351L57.1288 47.4011C56.0948 46.8641 55.0308 46.3111 53.8838 46.1191C53.8578 46.1141 53.8268 46.1141 53.8008 46.1091C53.6768 46.2431 51.0098 54.2071 50.9328 54.2071C50.8498 53.9901 50.1788 50.3001 50.1368 49.9391L50.1218 49.7841V49.7691C50.1218 49.7481 50.1268 49.7171 50.1318 49.7021L50.1368 49.6711C50.1578 49.6241 50.1778 49.5731 50.2088 49.5311L50.2348 49.4951C50.4338 49.1861 50.6428 48.8681 50.8428 48.5491C50.8828 48.4841 50.8948 48.3731 50.8698 48.3011C50.8008 48.1051 50.7328 47.9081 50.6638 47.7121L50.5858 47.4951C50.5028 47.2621 50.4208 47.0301 50.3428 46.7971C50.3168 46.7251 50.2778 46.7221 50.1928 46.6831C49.9428 46.5681 47.5978 46.5691 47.4128 46.6831C47.3338 46.7321 47.2888 46.7241 47.2628 46.7971C47.1848 47.0301 47.1028 47.2621 47.0198 47.4951L46.9418 47.7121C46.8728 47.9081 46.8038 48.1051 46.7358 48.3011C46.7108 48.3731 46.7228 48.4841 46.7628 48.5491C46.9628 48.8681 47.1718 49.1861 47.3708 49.4951L47.3968 49.5311C47.4278 49.5721 47.4488 49.6241 47.4688 49.6711L47.4738 49.7021C47.4788 49.7171 47.4838 49.7481 47.4838 49.7691V49.7841L47.4688 49.9391C47.4278 50.3011 46.7558 53.9901 46.6728 54.2071C46.5958 54.2071 43.9288 46.2441 43.8048 46.1091C43.7788 46.1141 43.7478 46.1141 43.7218 46.1191C42.5748 46.3101 41.5098 46.8631 40.4768 47.4011L40.2188 47.5351C39.2418 48.0361 38.1108 48.6511 37.0978 49.4111C36.2088 50.0721 35.3048 50.8011 34.8658 51.7731C34.4778 52.6311 34.5148 53.6441 34.5458 54.6201L34.5558 54.9251C34.5608 55.0801 34.5658 55.2871 34.5658 55.4831C34.5608 56.0311 34.9738 56.2791 35.3768 56.5221C35.4338 56.5531 35.4908 56.5841 35.5418 56.6201C36.0478 56.9351 36.5858 57.2611 37.1488 57.5141C38.9518 58.3151 41.0298 58.8781 43.6758 59.2971C44.5748 59.4371 45.4118 59.5401 46.2488 59.6071C47.0808 59.6791 47.8718 59.7101 48.6728 59.7101H48.8018H48.9308C49.7318 59.7101 50.5228 59.6791 51.3548 59.6071C52.1918 59.5401 53.0288 59.4361 53.9278 59.2971C56.5738 58.8781 58.6508 58.3151 60.4548 57.5141C61.0178 57.2611 61.5558 56.9351 62.0618 56.6201C62.1138 56.5841 62.1708 56.5531 62.2268 56.5221C62.6298 56.2791 63.0428 56.0311 63.0378 55.4831C63.0378 55.2871 63.0428 55.0801 63.0478 54.9251L63.0578 54.6201C63.0908 53.6441 63.1268 52.6311 62.7398 51.7731Z" fill="url(#paint3_linear_309_364)"/>
<path d="M36.9188 8.76702C36.8748 7.33202 36.1658 6.07202 35.0948 5.26102C34.3068 4.66402 33.3208 4.31002 32.2588 4.31002C27.6708 4.30702 24.3028 4.35502 19.7158 4.29002C17.3968 4.25602 15.0668 6.07502 15.0498 8.87902V9.02902C15.0488 12.003 15.0498 22.901 15.0498 22.901C15.0498 23.191 15.3988 23.336 15.6038 23.132C16.5038 22.237 18.2738 20.472 19.2588 19.499C19.2918 19.466 19.3248 19.434 19.3578 19.401C19.4658 19.294 19.6568 19.215 19.8088 19.214C21.8498 19.21 23.8898 19.207 25.9308 19.207C27.9178 19.206 28.8968 19.468 30.8278 18.903C32.5118 18.41 34.0328 17.322 35.1118 15.95C35.6078 15.32 36.0218 14.616 36.3348 13.853C37.0138 12.2 36.9708 10.485 36.9188 8.76702ZM19.6248 14.065C18.4778 14.065 17.5488 13.135 17.5488 11.989C17.5488 10.843 18.4788 9.91302 19.6248 9.91302C20.7718 9.91302 21.7008 10.843 21.7008 11.989C21.7008 13.135 20.7718 14.065 19.6248 14.065ZM26.0188 14.065C24.8718 14.065 23.9428 13.135 23.9428 11.989C23.9428 10.843 24.8728 9.91302 26.0188 9.91302C27.1658 9.91302 28.0948 10.843 28.0948 11.989C28.0948 13.135 27.1658 14.065 26.0188 14.065ZM32.1308 14.065C30.9838 14.065 30.0548 13.135 30.0548 11.989C30.0548 10.843 30.9848 9.91302 32.1308 9.91302C33.2768 9.91302 34.2068 10.843 34.2068 11.989C34.2068 13.135 33.2778 14.065 32.1308 14.065Z" fill="url(#paint4_linear_309_364)"/>
<path d="M43.773 4.36597H43.699C41.188 4.40297 39.083 4.40297 36.897 4.39597C37.48 4.97197 37.946 5.65897 38.256 6.41197C39.992 6.41197 41.727 6.41197 43.729 6.38197C45.324 6.38197 46.927 7.56397 46.942 9.54297V20.57L46.912 20.548C46.181 19.817 45.376 19.012 44.829 18.473L44.748 18.392C44.46 18.104 44.039 17.927 43.625 17.927L38.071 17.912C37.576 17.912 37.163 17.934 36.771 17.949C36.424 17.964 36.114 17.986 35.774 17.979C35.124 18.651 34.385 19.227 33.603 19.685C34.578 19.951 35.302 19.98 35.885 19.98C36.203 19.98 36.513 19.973 36.853 19.958C37.215 19.943 37.614 19.928 38.064 19.928L43.448 19.943C43.995 20.475 44.777 21.258 45.494 21.974L46.735 23.207C46.979 23.451 47.304 23.584 47.651 23.584C47.983 23.584 48.301 23.458 48.545 23.229C48.803 22.985 48.951 22.638 48.951 22.284V9.54297C48.936 6.34497 46.255 4.36597 43.773 4.36597Z" fill="url(#paint5_linear_309_364)"/>
<defs>
<linearGradient id="paint0_linear_309_364" x1="23.2319" y1="26.907" x2="4.01305" y2="31.3441" gradientUnits="userSpaceOnUse">
<stop stop-color="#06C270"/>
<stop offset="1" stop-color="#0063F7"/>
</linearGradient>
<linearGradient id="paint1_linear_309_364" x1="29.4716" y1="46.1091" x2="1.76742" y2="61.2566" gradientUnits="userSpaceOnUse">
<stop stop-color="#06C270"/>
<stop offset="1" stop-color="#0063F7"/>
</linearGradient>
<linearGradient id="paint2_linear_309_364" x1="56.8369" y1="26.907" x2="37.618" y2="31.3441" gradientUnits="userSpaceOnUse">
<stop stop-color="#06C270"/>
<stop offset="1" stop-color="#0063F7"/>
</linearGradient>
<linearGradient id="paint3_linear_309_364" x1="63.0769" y1="46.1091" x2="35.3731" y2="61.2561" gradientUnits="userSpaceOnUse">
<stop stop-color="#06C270"/>
<stop offset="1" stop-color="#0063F7"/>
</linearGradient>
<linearGradient id="paint4_linear_309_364" x1="36.945" y1="4.28955" x2="11.641" y2="11.91" gradientUnits="userSpaceOnUse">
<stop stop-color="#06C270"/>
<stop offset="1" stop-color="#0063F7"/>
</linearGradient>
<linearGradient id="paint5_linear_309_364" x1="48.951" y1="4.36597" x2="30.4077" y2="8.22338" gradientUnits="userSpaceOnUse">
<stop stop-color="#06C270"/>
<stop offset="1" stop-color="#0063F7"/>
</linearGradient>
</defs>
</svg>
