<svg width="64" height="64" viewBox="0 0 64 64" fill="none" xmlns="http://www.w3.org/2000/svg">
<g clip-path="url(#clip0_266_147)">
<path d="M44.25 41.25H49.75V45.75H44.25V41.25Z" fill="url(#paint0_linear_266_147)"/>
<path d="M62.7391 43.9922L47.7391 32.9922C47.5248 32.8347 47.2658 32.7498 46.9999 32.7498C46.7339 32.7498 46.4749 32.8347 46.2606 32.9922L31.2606 43.9922C31.1283 44.0893 31.0163 44.2115 30.9312 44.3518C30.8461 44.4921 30.7894 44.6479 30.7645 44.8101C30.7396 44.9723 30.7468 45.1379 30.7859 45.2973C30.8249 45.4567 30.895 45.6069 30.9921 45.7393C31.0891 45.8716 31.2113 45.9835 31.3517 46.0687C31.492 46.1538 31.6478 46.2104 31.81 46.2354C31.9722 46.2603 32.1378 46.253 32.2972 46.214C32.4566 46.1749 32.6068 46.1049 32.7391 46.0078L34.7499 44.5333V60.75H33.9999C33.6684 60.75 33.3504 60.8817 33.116 61.1161C32.8816 61.3505 32.7499 61.6685 32.7499 62C32.7499 62.3315 32.8816 62.6495 33.116 62.8839C33.3504 63.1183 33.6684 63.25 33.9999 63.25H59.9999C60.3314 63.25 60.6493 63.1183 60.8838 62.8839C61.1182 62.6495 61.2499 62.3315 61.2499 62C61.2499 61.6685 61.1182 61.3505 60.8838 61.1161C60.6493 60.8817 60.3314 60.75 59.9999 60.75H59.2499V44.5333L61.2606 46.0078C61.5279 46.2039 61.8621 46.2857 62.1898 46.2354C62.5174 46.185 62.8116 46.0065 63.0077 45.7393C63.2037 45.472 63.2856 45.1377 63.2352 44.8101C63.1849 44.4825 63.0064 44.1883 62.7391 43.9922ZM41.7499 40C41.7499 39.8358 41.7822 39.6733 41.845 39.5216C41.9078 39.37 41.9999 39.2322 42.116 39.1161C42.232 39 42.3698 38.9079 42.5215 38.8451C42.6732 38.7823 42.8357 38.75 42.9999 38.75H50.9999C51.164 38.75 51.3266 38.7823 51.4782 38.8451C51.6299 38.9079 51.7677 39 51.8838 39.1161C51.9999 39.2322 52.0919 39.37 52.1547 39.5216C52.2176 39.6733 52.2499 39.8358 52.2499 40V47C52.2499 47.1642 52.2176 47.3267 52.1547 47.4784C52.0919 47.63 51.9999 47.7678 51.8838 47.8839C51.7677 48 51.6299 48.0921 51.4782 48.1549C51.3266 48.2177 51.164 48.25 50.9999 48.25H42.9999C42.8357 48.25 42.6732 48.2177 42.5215 48.1549C42.3698 48.0921 42.232 48 42.116 47.8839C41.9999 47.7678 41.9078 47.63 41.845 47.4784C41.7822 47.3267 41.7499 47.1642 41.7499 47V40ZM51.7499 60.75V58C51.7499 56.7402 51.2494 55.532 50.3586 54.6412C49.4678 53.7504 48.2597 53.25 46.9999 53.25C45.7401 53.25 44.5319 53.7504 43.6411 54.6412C42.7503 55.532 42.2499 56.7402 42.2499 58V60.75H39.7499V58C39.7499 56.0772 40.5137 54.2331 41.8733 52.8735C43.233 51.5138 45.0771 50.75 46.9999 50.75C48.9227 50.75 50.7668 51.5138 52.1264 52.8735C53.486 54.2331 54.2499 56.0772 54.2499 58V60.75H51.7499Z" fill="url(#paint1_linear_266_147)"/>
<path d="M4.61026 42.828C4.47513 42.7348 4.35969 42.6159 4.27055 42.478C4.18141 42.3402 4.12031 42.1861 4.09074 42.0246C4.06118 41.8631 4.06372 41.6974 4.09824 41.5369C4.13276 41.3764 4.19857 41.2243 4.29191 41.0893C4.90721 40.1919 5.59926 39.3498 6.36027 38.5722C6.47544 38.4548 6.61264 38.3613 6.76399 38.2971C6.91535 38.2329 7.0779 38.1991 7.24233 38.1978C7.40675 38.1965 7.56981 38.2276 7.72218 38.2894C7.87455 38.3512 8.01323 38.4425 8.13026 38.558C8.2473 38.6735 8.3404 38.8109 8.40422 38.9625C8.46805 39.114 8.50135 39.2767 8.50221 39.4411C8.50308 39.6055 8.47149 39.7685 8.40926 39.9207C8.34703 40.0729 8.25538 40.2113 8.13957 40.328C7.48077 41.0024 6.88154 41.7325 6.34857 42.5101C6.25532 42.6452 6.13639 42.7605 5.99856 42.8496C5.86072 42.9387 5.70669 42.9997 5.54527 43.0292C5.38384 43.0587 5.21818 43.0562 5.05775 43.0216C4.89732 42.9871 4.74526 42.9213 4.61026 42.828Z" fill="#7D97F4"/>
<path d="M24.0344 47.1514L23.3495 47.568C23.1539 47.6872 22.9292 47.7502 22.7001 47.7501H17.3358C17.1183 47.7502 16.9046 47.6935 16.7157 47.5856L15.9639 47.1561L13.8144 53.6046C13.7243 53.8744 13.7289 54.1668 13.8274 54.4335C13.926 54.7003 14.1125 54.9255 14.3564 55.0719L19.3564 58.0719C19.5508 58.1885 19.7732 58.2501 19.9999 58.2501C20.2266 58.2501 20.449 58.1885 20.6435 58.0719L25.6435 55.0719C25.8873 54.9255 26.0738 54.7003 26.1724 54.4335C26.2709 54.1668 26.2755 53.8744 26.1855 53.6046L24.0344 47.1514Z" fill="url(#paint2_linear_266_147)"/>
<path d="M27.6007 39.9433C25.1543 38.3999 22.2954 37.6391 19.4054 37.7622C16.8671 37.8723 14.409 38.6836 12.3039 40.1059C12.1274 40.2246 11.984 40.3864 11.8874 40.5759C11.7908 40.7653 11.7442 40.9763 11.7518 41.1889C11.7594 41.4014 11.8211 41.6085 11.931 41.7906C12.041 41.9727 12.1955 42.1237 12.38 42.2295L15.6195 44.0798L17.6681 45.2499H22.3498L24.5168 43.9321L27.5821 42.0678C27.7638 41.9572 27.9142 41.802 28.0192 41.6171C28.1242 41.4321 28.1802 41.2234 28.1821 41.0107C28.184 40.7981 28.1316 40.5884 28.0298 40.4016C27.9281 40.2149 27.7804 40.0571 27.6007 39.9433Z" fill="url(#paint3_linear_266_147)"/>
<path d="M27.0379 28.022C27.1725 27.9276 27.2871 27.8077 27.3752 27.6689C27.4633 27.5302 27.5232 27.3755 27.5514 27.2136C27.5796 27.0517 27.5757 26.8858 27.5397 26.7255C27.5038 26.5651 27.4366 26.4134 27.342 26.279C27.2474 26.1447 27.1272 26.0303 26.9883 25.9424C26.8494 25.8546 26.6946 25.795 26.5327 25.767C26.3707 25.739 26.2049 25.7433 26.0446 25.7795C25.8843 25.8157 25.7327 25.8832 25.5985 25.978C24.0071 27.0983 22.1162 27.7153 20.1704 27.7495C18.2245 27.7836 16.3132 27.2332 14.6835 26.1694C14.5461 26.0797 14.3923 26.0178 14.231 25.9875C14.0697 25.9571 13.904 25.9589 13.7434 25.9925C13.5827 26.0262 13.4303 26.0912 13.2948 26.1838C13.1592 26.2764 13.0433 26.3948 12.9535 26.5322C12.8637 26.6696 12.8019 26.8234 12.7716 26.9847C12.7412 27.146 12.7429 27.3117 12.7766 27.4724C12.8103 27.633 12.8753 27.7854 12.9679 27.921C13.0605 28.0565 13.1789 28.1724 13.3163 28.2622C15.3649 29.5999 17.7677 30.2921 20.214 30.2493C22.6603 30.2065 25.0374 29.4306 27.0379 28.022Z" fill="url(#paint4_linear_266_147)"/>
<path d="M26.6142 33.9266C30.3008 32.3967 33.3427 29.6358 35.2218 26.1144C37.1008 22.593 37.7007 18.529 36.9192 14.6148C36.1377 10.7007 34.0231 7.17867 30.9358 4.64888C27.8485 2.1191 23.9795 0.738102 19.9881 0.741216C15.9967 0.744331 12.1299 2.13136 9.04656 4.66596C5.96322 7.20056 3.85414 10.7259 3.07872 14.6412C2.30329 18.5566 2.9095 22.6197 4.79405 26.1381C6.6786 29.6566 9.72488 32.4128 13.4138 33.9369C12.5699 34.25 11.7496 34.6232 10.9591 35.0537C10.8147 35.1323 10.6873 35.2387 10.5841 35.3666C10.4809 35.4946 10.4039 35.6417 10.3576 35.7994C10.3114 35.9572 10.2967 36.1225 10.3144 36.2859C10.3321 36.4494 10.3818 36.6077 10.4608 36.7519C10.5398 36.8961 10.6465 37.0232 10.7747 37.1261C10.9029 37.229 11.0502 37.3056 11.208 37.3515C11.3659 37.3974 11.5313 37.4117 11.6947 37.3936C11.8581 37.3755 12.0163 37.3254 12.1603 37.246C14.3569 36.0384 16.8056 35.3613 19.3106 35.2689C23.6664 35.0759 27.924 36.5997 31.1681 39.5126C31.2904 39.623 31.4333 39.708 31.5886 39.7629C31.7439 39.8178 31.9085 39.8415 32.0729 39.8325C32.2374 39.8236 32.3984 39.7822 32.5469 39.7109C32.6953 39.6395 32.8281 39.5395 32.9378 39.4166C33.0474 39.2937 33.1317 39.1503 33.1857 38.9947C33.2398 38.8391 33.2626 38.6744 33.2527 38.51C33.2429 38.3456 33.2007 38.1848 33.1285 38.0367C33.0563 37.8887 32.9556 37.7564 32.8321 37.6474C31.0145 36.0237 28.9043 34.7609 26.6142 33.9266ZM20.0001 3.24995C23.6706 3.25499 27.2077 4.62689 29.9217 7.09814C32.6357 9.5694 34.3321 12.9629 34.68 16.6169C33.2918 16.3398 32.0257 15.6335 31.0607 14.5979C30.0956 13.5622 29.4804 12.2495 29.3019 10.8452C29.2642 10.5428 29.1173 10.2646 28.8889 10.0629C28.6605 9.86124 28.3663 9.74993 28.0616 9.74995H11.9386C11.6339 9.74993 11.3397 9.86124 11.1113 10.0629C10.8829 10.2646 10.7361 10.5428 10.6984 10.8452C10.5199 12.2495 9.90461 13.5622 8.93956 14.5979C7.9745 15.6335 6.70843 16.3398 5.3202 16.6169C5.66814 12.9629 7.36448 9.56942 10.0785 7.09816C12.7925 4.6269 16.3296 3.255 20.0001 3.24995ZM5.30832 19.1498C7.12623 18.8893 8.82565 18.0942 10.1907 16.8656C11.5557 15.6371 12.5248 14.0305 12.9747 12.2499H27.0255C27.4754 14.0305 28.4445 15.6371 29.8095 16.8656C31.1745 18.0942 32.874 18.8893 34.6919 19.1498C34.4059 22.8504 32.7339 26.3067 30.0102 28.828C27.2865 31.3494 23.7117 32.75 20.0001 32.75C16.2885 32.75 12.7137 31.3494 9.98995 28.828C7.26624 26.3067 5.59432 22.8504 5.30832 19.1498Z" fill="url(#paint5_linear_266_147)"/>
<path d="M29 60.7499H10.25V50.9999C10.25 50.6684 10.1183 50.3505 9.88388 50.116C9.64946 49.8816 9.33152 49.7499 9 49.7499C8.66848 49.7499 8.35054 49.8816 8.11612 50.116C7.8817 50.3505 7.75 50.6684 7.75 50.9999V60.7499H4C3.8019 60.7473 3.61265 60.6674 3.47256 60.5274C3.33248 60.3873 3.25262 60.198 3.25 59.9999V52.4198C3.25091 50.4586 3.57932 48.5112 4.22168 46.6581C4.27529 46.5029 4.2978 46.3387 4.28794 46.1749C4.27809 46.011 4.23605 45.8506 4.16423 45.703C4.09241 45.5554 3.99221 45.4233 3.86936 45.3144C3.74651 45.2055 3.60342 45.1219 3.44824 45.0683C3.29306 45.0147 3.12885 44.9922 2.96497 45.002C2.8011 45.0119 2.64077 45.0539 2.49314 45.1257C2.3455 45.1976 2.21347 45.2977 2.10456 45.4206C1.99565 45.5434 1.91201 45.6865 1.8584 45.8417C1.12542 47.9575 0.750805 50.1807 0.75 52.4198V59.9999C0.750998 60.8616 1.09373 61.6876 1.703 62.2969C2.31228 62.9062 3.13835 63.2489 4 63.2499H29C29.3315 63.2499 29.6495 63.1182 29.8839 62.8838C30.1183 62.6494 30.25 62.3314 30.25 61.9999C30.25 61.6684 30.1183 61.3505 29.8839 61.116C29.6495 60.8816 29.3315 60.7499 29 60.7499Z" fill="url(#paint6_linear_266_147)"/>
</g>
<defs>
<linearGradient id="paint0_linear_266_147" x1="49.75" y1="41.25" x2="43.4554" y2="43.2539" gradientUnits="userSpaceOnUse">
<stop stop-color="#FBD3BB"/>
<stop offset="1" stop-color="#F37124"/>
</linearGradient>
<linearGradient id="paint1_linear_266_147" x1="63.2498" y1="32.7498" x2="25.2147" y2="43.3064" gradientUnits="userSpaceOnUse">
<stop stop-color="#FBD3BB"/>
<stop offset="1" stop-color="#F37124"/>
</linearGradient>
<linearGradient id="paint2_linear_266_147" x1="26.2498" y1="47.1514" x2="11.7426" y2="51.4071" gradientUnits="userSpaceOnUse">
<stop stop-color="#FBD3BB"/>
<stop offset="1" stop-color="#F37124"/>
</linearGradient>
<linearGradient id="paint3_linear_266_147" x1="28.1821" y1="37.7493" x2="12.5581" y2="46.6644" gradientUnits="userSpaceOnUse">
<stop stop-color="#FBD3BB"/>
<stop offset="1" stop-color="#F37124"/>
</linearGradient>
<linearGradient id="paint4_linear_266_147" x1="27.57" y1="25.7488" x2="16.8039" y2="34.9794" gradientUnits="userSpaceOnUse">
<stop stop-color="#FBD3BB"/>
<stop offset="1" stop-color="#F37124"/>
</linearGradient>
<linearGradient id="paint5_linear_266_147" x1="37.2532" y1="0.741215" x2="-4.05409" y2="10.2374" gradientUnits="userSpaceOnUse">
<stop stop-color="#FBD3BB"/>
<stop offset="1" stop-color="#F37124"/>
</linearGradient>
<linearGradient id="paint6_linear_266_147" x1="30.25" y1="44.9998" x2="-1.33487" y2="58.2982" gradientUnits="userSpaceOnUse">
<stop stop-color="#FBD3BB"/>
<stop offset="1" stop-color="#F37124"/>
</linearGradient>
<clipPath id="clip0_266_147">
<rect width="64" height="64" fill="white"/>
</clipPath>
</defs>
</svg>
