<svg width="24" height="24" viewBox="0 0 24 24" fill="none" xmlns="http://www.w3.org/2000/svg">
<path d="M10.4199 18.0932H12.9376V12.0002H14.6169L14.8396 9.90094H12.9376L12.9399 8.84944C12.9399 8.30194 12.9924 8.00869 13.7776 8.00869H14.8276V5.90869H13.1476C11.1301 5.90869 10.4199 6.92719 10.4199 8.64019V9.90094H9.16211V12.0009H10.4199V18.0932Z" fill="#F37124"/>
<path d="M12 0.75C18.2033 0.75 23.25 5.79675 23.25 12C23.25 18.2033 18.2033 23.25 12 23.25C5.79675 23.25 0.75 18.2033 0.75 12C0.75 5.79675 5.79675 0.75 12 0.75ZM12 0C5.37225 0 0 5.37225 0 12C0 18.6278 5.37225 24 12 24C18.6278 24 24 18.6278 24 12C24 5.37225 18.6278 0 12 0Z" fill="#F37124"/>
</svg>
