<svg width="24" height="24" viewBox="0 0 24 24" fill="none" xmlns="http://www.w3.org/2000/svg">
<path d="M11.9987 10.1255C10.8807 10.1255 9.97266 11.0336 9.97266 12.1515C9.97266 13.2695 10.8807 14.1798 11.9987 14.1798C13.1167 14.1798 14.027 13.2695 14.027 12.1515C14.027 11.0336 13.1167 10.1255 11.9987 10.1255Z" fill="#F37124"/>
<path d="M15.0541 6.62793H8.93839C7.57958 6.62793 6.47266 7.73486 6.47266 9.09366V15.2094C6.47266 16.5704 7.57958 17.6751 8.93839 17.6751H15.0541C16.4151 17.6751 17.5198 16.5704 17.5198 15.2094V9.09366C17.5198 7.73486 16.4151 6.62793 15.0541 6.62793ZM11.9962 15.7308C10.0232 15.7308 8.41696 14.1245 8.41696 12.1515C8.41696 10.1785 10.0232 8.57444 11.9962 8.57444C13.9693 8.57444 15.5755 10.1785 15.5755 12.1515C15.5755 14.1245 13.9693 15.7308 11.9962 15.7308ZM15.6507 9.22402C15.2331 9.22402 14.8928 8.88597 14.8928 8.46839C14.8928 8.05081 15.2331 7.71055 15.6507 7.71055C16.0682 7.71055 16.4085 8.05081 16.4085 8.46839C16.4085 8.88597 16.0682 9.22402 15.6507 9.22402Z" fill="#F37124"/>
<circle cx="12" cy="12" r="11.58" stroke="#F37124" stroke-width="0.84"/>
</svg>
