<svg width="24" height="24" viewBox="0 0 24 24" fill="none" xmlns="http://www.w3.org/2000/svg">
<path d="M8.72715 9.81856C9.32965 9.81856 9.81807 9.33014 9.81807 8.72764C9.81807 8.12514 9.32965 7.63672 8.72715 7.63672C8.12465 7.63672 7.63623 8.12514 7.63623 8.72764C7.63623 9.33014 8.12465 9.81856 8.72715 9.81856Z" fill="#F37124"/>
<path d="M9.81803 10.3633H7.63623V16.3633H9.81803V10.3633Z" fill="#F37124"/>
<path d="M12 0C5.37258 0 0 5.37258 0 12C0 18.6274 5.37258 24 12 24C18.6274 24 24 18.6274 24 12C24 5.37258 18.6274 0 12 0ZM12 22.9091C5.97506 22.9091 1.09092 18.0249 1.09092 12C1.09092 5.97506 5.97506 1.09092 12 1.09092C18.0249 1.09092 22.9091 5.97506 22.9091 12C22.9091 18.0249 18.0249 22.9091 12 22.9091Z" fill="#F37124"/>
<path d="M14.9237 10.3633C13.2873 10.3633 13.091 11.3342 13.091 11.3342V10.3633H10.9092V16.3633H13.091V13.0906C13.091 13.0906 13.091 11.9996 14.0183 11.9996C14.5637 11.9996 14.7273 12.4851 14.7273 13.0906V16.3633H16.9091V13.0906C16.9091 11.3833 16.1673 10.3633 14.9237 10.3633Z" fill="#F37124"/>
</svg>
