<svg width="124" height="124" viewBox="0 0 124 124" fill="none" xmlns="http://www.w3.org/2000/svg">
<g filter="url(#filter0_d_344_892)">
<rect x="30" y="25" width="64" height="64" rx="32" fill="url(#paint0_linear_344_892)" shape-rendering="crispEdges"/>
<path d="M74.1679 66.5258L72.4957 58.1319C72.3957 57.6299 71.9062 57.3028 71.404 57.4029L69.2521 57.8316C68.7511 57.9314 68.4245 58.4194 68.5226 58.9205C67.284 59.3094 65.7861 59.3804 63.9328 57.8514C62.9978 57.0802 61.7777 57.0561 60.8967 57.7918L60.0598 58.4906H55.4595C55.4333 58.3982 55.3931 58.3091 55.3381 58.2267C55.2002 58.0203 54.9906 57.8799 54.7479 57.8316L52.5959 57.4029C52.3532 57.3547 52.1058 57.4039 51.8993 57.5418C51.6928 57.6797 51.5525 57.8893 51.5042 58.1319L49.832 66.5259C49.732 67.0278 50.059 67.5176 50.561 67.6176L52.713 68.0462C52.7739 68.0584 52.8347 68.0643 52.8946 68.0643C53.2737 68.0643 53.6186 67.8302 53.7579 67.4764L58.7139 72.4324C59.0396 72.7581 59.4739 72.9374 59.9368 72.9374C60.3998 72.9374 60.8341 72.7581 61.1597 72.4324C61.3407 72.2514 61.4766 72.0368 61.5615 71.8025L62.1264 72.3673C62.8008 73.0416 63.898 73.0416 64.5723 72.3672C64.7603 72.1791 64.8959 71.9583 64.979 71.7227C65.2799 71.9558 65.6481 72.082 66.0365 72.082C66.4994 72.0819 66.9337 71.9026 67.2594 71.5769C67.5851 71.2512 67.7645 70.8169 67.7645 70.3539C67.7645 70.3506 67.7645 70.3472 67.7645 70.3438C67.7681 70.3438 67.7717 70.3439 67.7753 70.3439C68.2181 70.3438 68.6611 70.1753 68.9982 69.8381C69.4366 69.3999 69.5977 68.7536 69.4431 68.1669L70.2145 67.3956C70.3304 67.794 70.698 68.0642 71.1053 68.0642C71.1651 68.0642 71.226 68.0583 71.287 68.0462L73.439 67.6175C73.9408 67.5176 74.2679 67.0278 74.1679 66.5258ZM61.5376 58.5594C62.0453 58.1355 62.7357 58.1602 63.2963 58.6228C65.4675 60.4141 67.2966 60.3327 68.7189 59.9066L69.9765 66.2194L68.8647 67.3312L63.896 62.2901C63.8896 62.2837 63.8832 62.2775 63.8766 62.2714C62.8177 61.3067 61.846 60.8894 61.2106 61.1264C60.8922 61.2452 60.6857 61.5152 60.6441 61.8671C60.6436 61.8711 60.6431 61.875 60.6428 61.8789C60.6326 61.9871 60.6231 62.0949 60.6136 62.2022C60.4943 63.5579 60.4047 64.5768 59.1408 65.0819L58.3821 61.6052C58.3194 61.3177 58.4943 61.1004 58.6521 60.9686L61.5376 58.5594ZM61.6378 61.9801C61.6378 61.9803 61.6377 61.9806 61.6376 61.9809C61.6376 61.9806 61.6377 61.9803 61.6377 61.98L61.6378 61.9801ZM52.8378 67.0515L50.8266 66.6509L52.4708 58.3976L54.482 58.7983L52.8378 67.0515ZM68.2911 69.1311C68.0067 69.4156 67.5439 69.4156 67.2595 69.1311L63.5986 65.4702C63.4033 65.275 63.0868 65.275 62.8915 65.4702C62.6963 65.6655 62.6963 65.982 62.8915 66.1773L66.5524 69.8382L66.5525 69.8383C66.6893 69.9752 66.7646 70.1583 66.7646 70.354C66.7646 70.5498 66.6892 70.733 66.5523 70.8699C66.4155 71.0067 66.2323 71.0821 66.0365 71.0821C65.8408 71.0821 65.6576 71.0068 65.5208 70.8699L64.5726 69.9217C64.5725 69.9216 64.5724 69.9216 64.5723 69.9214L61.6524 67.0016C61.4571 66.8064 61.1406 66.8064 60.9453 67.0016C60.75 67.1969 60.7501 67.5134 60.9453 67.7087L63.8649 70.6283L63.8652 70.6286C64.002 70.7653 64.0774 70.9485 64.0774 71.1443C64.0774 71.3401 64.002 71.5232 63.8651 71.6602C63.7283 71.797 63.5451 71.8724 63.3493 71.8724C63.1535 71.8724 62.9703 71.7971 62.8335 71.6602L61.1598 69.9866L59.7061 68.533C59.5109 68.3378 59.1943 68.3378 58.9991 68.533C58.8038 68.7283 58.8038 69.0448 58.9991 69.2401L60.4526 70.6937L60.4528 70.6938C60.5895 70.8306 60.6648 71.0138 60.6648 71.2095C60.6648 71.4052 60.5895 71.5884 60.4526 71.7253C60.3158 71.8621 60.1326 71.9375 59.9368 71.9375C59.741 71.9375 59.5578 71.8621 59.421 71.7253L54.0053 66.3097L55.3638 59.4906H58.8621L58.0113 60.2009C57.4957 60.6314 57.2748 61.2209 57.4053 61.8184L58.2805 65.8292C58.3093 65.9609 58.3901 66.0756 58.5046 66.1469C58.6191 66.2183 58.7578 66.2402 58.8886 66.2081C61.3178 65.6094 61.473 63.8457 61.61 62.2898C61.6166 62.2143 61.6233 62.1385 61.6302 62.0624C61.8296 62.082 62.3723 62.2561 63.1935 63.0017L68.4469 68.3317C68.5595 68.6021 68.4996 68.9226 68.2911 69.1311ZM71.162 67.0515L69.5178 58.7983L71.529 58.3976L73.1731 66.6509L71.162 67.0515ZM55.472 57.0736H60.964H63.0358H68.5278C68.8034 57.0736 69.0684 56.9583 69.2549 56.7572C69.4414 56.5561 69.5365 56.2832 69.5159 56.0085C69.3297 53.5265 67.9309 51.3863 65.931 50.1539C65.9067 50.1351 65.8806 50.1181 65.8522 50.1036C65.847 50.1009 65.8415 50.0989 65.8362 50.0964C65.5116 49.9028 65.1717 49.7329 64.819 49.5892C64.7886 49.5732 64.7567 49.5607 64.724 49.5514C64.4316 49.4369 64.131 49.3401 63.8231 49.2625C65.2868 48.5749 66.3031 47.0871 66.3031 45.3657C66.3032 42.9929 64.3728 41.0625 61.9999 41.0625C59.627 41.0625 57.6966 42.9929 57.6966 45.3658C57.6966 47.0872 58.7129 48.5749 60.1766 49.2626C59.8688 49.3401 59.5681 49.4369 59.2759 49.5514C59.243 49.5608 59.2111 49.5733 59.1806 49.5893C58.828 49.7331 58.4881 49.9029 58.1635 50.0965C58.1582 50.099 58.1528 50.101 58.1475 50.1037C58.1191 50.1182 58.093 50.1353 58.0687 50.1541C56.0688 51.3864 54.67 53.5266 54.4838 56.0086V56.0087C54.4633 56.2835 54.5584 56.5565 54.745 56.7574C54.9315 56.9583 55.1965 57.0736 55.472 57.0736ZM59.3595 50.5993L61.1736 51.8252L60.068 52.7627L59.0403 50.7519C59.1451 50.6981 59.2517 50.6474 59.3595 50.5993ZM64.9595 50.7518L63.9318 52.7626L62.8262 51.8252L64.6403 50.5992C64.7481 50.6474 64.8546 50.6981 64.9595 50.7518ZM61.9999 51.1767L60.5545 50.1999C61.0206 50.0931 61.5045 50.0364 61.9999 50.0364C62.4953 50.0364 62.9791 50.0931 63.4453 50.1999L61.9999 51.1767ZM61.9999 52.4356L62.4342 52.8039L62.1005 53.3407H61.8994L61.5656 52.8038L61.9999 52.4356ZM61.5986 56.0736L61.9999 54.4051L62.4013 56.0735H61.5986V56.0736ZM68.518 56.0736H63.4298L62.9135 53.9272L63.2053 53.4577L63.7665 53.9335C63.8576 54.0107 63.9724 54.0521 64.0898 54.0521C64.1224 54.0521 64.1553 54.0489 64.1879 54.0424C64.3376 54.0125 64.4655 53.9157 64.535 53.7797L65.8143 51.2764C67.3281 52.3709 68.3665 54.0967 68.518 56.0736ZM58.6966 45.3658C58.6966 43.5444 60.1785 42.0625 61.9999 42.0625C63.8213 42.0625 65.3032 43.5444 65.3032 45.3658C65.3032 47.1872 63.8213 48.6691 61.9999 48.6691C60.1785 48.6691 58.6966 47.1872 58.6966 45.3658ZM58.1854 51.2763L59.4648 53.7796C59.5343 53.9156 59.6621 54.0124 59.8118 54.0424C59.8445 54.0489 59.8773 54.0521 59.91 54.0521C60.0273 54.0521 60.1421 54.0107 60.2333 53.9334L60.7945 53.4576L61.0864 53.9271L60.5701 56.0734H55.4818C55.6331 54.0968 56.6715 52.3709 58.1854 51.2763Z" fill="white"/>
</g>
<defs>
<filter id="filter0_d_344_892" x="0" y="0" width="124" height="124" filterUnits="userSpaceOnUse" color-interpolation-filters="sRGB">
<feFlood flood-opacity="0" result="BackgroundImageFix"/>
<feColorMatrix in="SourceAlpha" type="matrix" values="0 0 0 0 0 0 0 0 0 0 0 0 0 0 0 0 0 0 127 0" result="hardAlpha"/>
<feOffset dy="5"/>
<feGaussianBlur stdDeviation="15"/>
<feComposite in2="hardAlpha" operator="out"/>
<feColorMatrix type="matrix" values="0 0 0 0 0 0 0 0 0 0 0 0 0 0 0 0 0 0 0.1 0"/>
<feBlend mode="normal" in2="BackgroundImageFix" result="effect1_dropShadow_344_892"/>
<feBlend mode="normal" in="SourceGraphic" in2="effect1_dropShadow_344_892" result="shape"/>
</filter>
<linearGradient id="paint0_linear_344_892" x1="94" y1="25" x2="18.4551" y2="44.6775" gradientUnits="userSpaceOnUse">
<stop stop-color="#06C270"/>
<stop offset="1" stop-color="#0063F7"/>
</linearGradient>
</defs>
</svg>
