<svg width="64" height="64" viewBox="0 0 64 64" fill="none" xmlns="http://www.w3.org/2000/svg">
<path d="M61.4999 31.316L58.6596 28.6796V19.2178L59.9749 18.5878C60.4064 18.3811 60.6745 17.9733 60.6745 17.5231C60.6745 17.0395 60.3724 16.606 59.8664 16.3638L37.2764 5.54313C36.816 5.32263 36.099 5.22088 35.5351 5.49101L31.2764 7.53101C28.9184 3.12738 24.2722 0.124756 18.9374 0.124756C11.2249 0.124756 4.95037 6.39938 4.95037 14.1118C4.95037 21.8241 11.2249 28.0989 18.9374 28.0989C19.0272 28.0989 19.1167 28.0971 19.2062 28.0955V29.4701C19.2062 30.2974 19.6697 31.0333 20.4156 31.3905L31.8521 36.8689C33.324 37.574 34.8374 37.9264 36.3512 37.9264C37.8647 37.9264 39.3789 37.5738 40.8504 36.8689L52.2872 31.3905C53.0332 31.0333 53.4966 30.2974 53.4966 29.4701V21.691L56.6596 20.1759V28.6796L53.8192 31.3161C53.6154 31.5054 53.4995 31.7709 53.4995 32.049V37.9154C53.4995 38.4676 53.9472 38.9154 54.4995 38.9154H60.8195C61.3717 38.9154 61.8195 38.4676 61.8195 37.9154V32.049C61.8196 31.7708 61.7037 31.5053 61.4999 31.316ZM18.9374 26.0989C12.3277 26.0989 6.95037 20.7215 6.95037 14.1119C6.95037 7.50226 12.3277 2.12476 18.9374 2.12476C25.547 2.12476 30.9244 7.50213 30.9244 14.1118C30.9244 20.7214 25.5471 26.0989 18.9374 26.0989ZM36.3005 18.5005L53.6782 19.3864L36.3781 27.6731C36.3469 27.671 36.3082 27.6641 36.2904 27.6568L28.7665 24.0528C31.3321 21.5158 32.9245 17.9964 32.9245 14.1118C32.9245 12.4434 32.6304 10.8426 32.0921 9.35776L36.3249 7.33026C36.3561 7.33238 36.3946 7.33926 36.4125 7.34676L57.6127 17.5018L57.457 17.5764L36.4025 16.5031C35.8514 16.4764 35.381 16.8994 35.3529 17.451C35.3247 18.0026 35.7489 18.4724 36.3005 18.5005ZM52.806 39.2859C51.5701 38.9544 50.2827 39.1226 49.181 39.7586L36.7746 46.9213C36.5312 44.8873 35.0872 43.1019 32.9921 42.5315L18.911 38.699C17.0069 38.1805 14.9552 38.707 12.9779 40.2215L9.27162 43.0598L9.13299 42.5424C8.87149 41.5664 7.86487 40.985 6.88899 41.2466L3.53874 42.1445C3.06687 42.2709 2.67199 42.5743 2.42699 42.9988C2.18199 43.4233 2.11674 43.9168 2.24312 44.3885L7.10049 62.5165C7.31962 63.3343 8.06174 63.8749 8.87087 63.8749C9.02724 63.8749 9.18637 63.8546 9.34462 63.8123L12.695 62.9144C13.1667 62.7879 13.5616 62.4846 13.8066 62.0601C14.0516 61.6356 14.1169 61.1421 13.9905 60.6704L13.8122 60.005C15.7876 58.5321 17.6056 58.1193 19.8061 58.6241L27.8716 60.4731C28.5742 60.6341 29.2591 60.7146 29.9242 60.7146C31.303 60.7146 32.5971 60.3691 33.7899 59.6805L53.9597 48.0358C56.2412 46.7186 57.0259 43.7903 55.7087 41.5081C55.0727 40.4063 54.0419 39.6171 52.806 39.2859ZM52.9597 46.3038L32.7897 57.9486C31.4547 58.7194 29.9921 58.9075 28.3184 58.5239L20.2529 56.6749C17.6999 56.0895 15.4971 56.4824 13.2615 57.9503L9.83162 45.15L14.1937 41.8095C15.678 40.6729 17.0885 40.276 18.3856 40.6289L32.4667 44.4614C34.1587 44.9221 35.1606 46.6733 34.7 48.3651C34.2394 50.057 32.4885 51.0585 30.7965 50.5984L23.2746 48.551C22.7416 48.406 22.1921 48.7203 22.0471 49.2533C21.9021 49.7861 22.2165 50.3356 22.7494 50.4806L30.2712 52.528C30.7249 52.6515 31.1811 52.7105 31.6302 52.7105C33.7311 52.7104 35.6737 51.42 36.4557 49.4148L50.181 41.4906C50.8201 41.1219 51.5685 41.0246 52.2882 41.2175C53.0081 41.4105 53.6076 41.8686 53.9765 42.5078C54.7425 43.8351 54.2864 45.5379 52.9597 46.3038ZM18.9374 4.04701C13.3876 4.04701 8.87262 8.56201 8.87262 14.1118C8.87262 19.6615 13.3876 24.1765 18.9374 24.1765C24.4871 24.1765 29.0021 19.6615 29.0021 14.1118C29.0021 8.56201 24.4871 4.04701 18.9374 4.04701ZM19.9374 18.7774V19.4995C19.9374 20.0518 19.4896 20.4995 18.9374 20.4995C18.3851 20.4995 17.9374 20.0518 17.9374 19.4995V18.8194C17.2521 18.6679 16.6335 18.2679 16.2134 17.6869C15.8897 17.2394 15.9902 16.6141 16.4377 16.2906C16.8855 15.967 17.5105 16.0675 17.834 16.515C18.0024 16.7479 18.2715 16.8869 18.554 16.8869H19.1482C19.6376 16.8869 20.0357 16.4888 20.0357 15.9993C20.0357 15.5099 19.6376 15.1118 19.1482 15.1118H18.7262C17.1341 15.1118 15.8387 13.8164 15.8387 12.2241C15.8387 10.9054 16.7274 9.79026 17.9372 9.44613V8.72388C17.9372 8.17163 18.385 7.72388 18.9372 7.72388C19.4895 7.72388 19.9372 8.17163 19.9372 8.72388V9.40401C20.6225 9.55551 21.2411 9.95551 21.6612 10.5365C21.9849 10.984 21.8844 11.6091 21.4369 11.9328C20.9892 12.2564 20.3641 12.1559 20.0406 11.7084C19.8722 11.4755 19.6031 11.3365 19.3206 11.3365H18.7264C18.237 11.3365 17.8389 11.7346 17.8389 12.2241C17.8389 12.7136 18.237 13.1118 18.7264 13.1118H19.1484C20.7405 13.1118 22.0359 14.4071 22.0359 15.9993C22.0359 17.318 21.1471 18.4331 19.9374 18.7774Z" fill="url(#paint0_linear_266_322)"/>
<defs>
<linearGradient id="paint0_linear_266_322" x1="61.8195" y1="0.124763" x2="-9.14078" y2="17.4162" gradientUnits="userSpaceOnUse">
<stop stop-color="#06C270"/>
<stop offset="1" stop-color="#0063F7"/>
</linearGradient>
</defs>
</svg>
