<svg width="24" height="24" viewBox="0 0 24 24" fill="none" xmlns="http://www.w3.org/2000/svg">
<path fill-rule="evenodd" clip-rule="evenodd" d="M11.501 2.74985C6.66849 2.74985 2.75098 6.66736 2.75098 11.4999C2.75098 16.3323 6.66849 20.2499 11.501 20.2499C16.3335 20.2499 20.251 16.3323 20.251 11.4999C20.251 6.66736 16.3335 2.74985 11.501 2.74985ZM1.25098 11.4999C1.25098 5.83893 5.84006 1.24985 11.501 1.24985C17.1619 1.24985 21.751 5.83893 21.751 11.4999C21.751 14.0604 20.8121 16.4016 19.2598 18.1981L22.5313 21.4695C22.8242 21.7624 22.8242 22.2373 22.5313 22.5302C22.2384 22.8231 21.7635 22.8231 21.4706 22.5302L18.1992 19.2587C16.4027 20.811 14.0615 21.7499 11.501 21.7499C5.84006 21.7499 1.25098 17.1608 1.25098 11.4999Z" fill="url(#paint0_linear_166_879)"/>
<defs>
<linearGradient id="paint0_linear_166_879" x1="22.751" y1="1.24985" x2="-2.62738" y2="7.86026" gradientUnits="userSpaceOnUse">
<stop stop-color="#2D7CF2"/>
<stop offset="1" stop-color="#273B92"/>
</linearGradient>
</defs>
</svg>
