<svg width="14" height="14" viewBox="0 0 14 14" fill="none" xmlns="http://www.w3.org/2000/svg">
<path d="M6.50415 0.822579C6.57951 0.241671 7.42049 0.241673 7.49585 0.822582L7.79154 3.10215C7.84576 3.52017 8.36115 3.68763 8.65073 3.38132L10.2299 1.71091C10.6323 1.28524 11.3126 1.77956 11.0321 2.29381L9.93147 4.31183C9.72963 4.68189 10.0482 5.1203 10.4625 5.0427L12.7219 4.61949C13.2976 4.51165 13.5575 5.31147 13.0283 5.56265L10.9517 6.5483C10.5709 6.72904 10.5709 7.27096 10.9517 7.4517L13.0283 8.43735C13.5575 8.68853 13.2976 9.48835 12.7219 9.38051L10.4625 8.9573C10.0482 8.8797 9.72963 9.31811 9.93147 9.68817L11.0321 11.7062C11.3126 12.2204 10.6323 12.7148 10.2298 12.2891L8.65073 10.6187C8.36115 10.3124 7.84576 10.4798 7.79154 10.8978L7.49585 13.1774C7.42049 13.7583 6.57951 13.7583 6.50415 13.1774L6.20846 10.8978C6.15424 10.4798 5.63885 10.3124 5.34927 10.6187L3.77015 12.2891C3.36774 12.7148 2.68737 12.2204 2.96786 11.7062L4.06853 9.68817C4.27037 9.31811 3.95184 8.8797 3.53752 8.9573L1.27815 9.38051C0.702384 9.48835 0.442508 8.68853 0.971699 8.43735L3.04833 7.4517C3.42913 7.27096 3.42913 6.72904 3.04833 6.5483L0.971697 5.56265C0.442505 5.31147 0.702387 4.51165 1.27815 4.61949L3.53753 5.0427C3.95184 5.1203 4.27037 4.68189 4.06853 4.31183L2.96785 2.29381C2.68737 1.77955 3.36774 1.28524 3.77015 1.71091L5.34927 3.38132C5.63885 3.68763 6.15424 3.52017 6.20846 3.10215L6.50415 0.822579Z" fill="#F37124"/>
</svg>
