<svg width="24" height="24" viewBox="0 0 24 24" fill="none" xmlns="http://www.w3.org/2000/svg">
<circle cx="12" cy="12" r="11.58" stroke="#F37124" stroke-width="0.84"/>
<g clip-path="url(#clip0_0_1)">
<path d="M17.2574 9.00928C16.5725 9.00928 15.9406 8.7824 15.4332 8.39967C14.8513 7.96092 14.4331 7.31732 14.2855 6.57553C14.2489 6.39225 14.2292 6.20311 14.2274 6.00928H12.271V11.3549L12.2687 14.2829C12.2687 15.0658 11.7589 15.7295 11.0523 15.9629C10.8472 16.0307 10.6257 16.0628 10.3951 16.0501C10.1007 16.034 9.82486 15.9451 9.58509 15.8017C9.07486 15.4965 8.72892 14.9429 8.71955 14.3097C8.70478 13.3199 9.50494 12.5129 10.494 12.5129C10.6892 12.5129 10.8767 12.5448 11.0523 12.6027V11.1416V10.6164C10.8671 10.589 10.6787 10.5747 10.4881 10.5747C9.40556 10.5747 8.39306 11.0247 7.66931 11.8354C7.12228 12.448 6.79416 13.2297 6.74353 14.0493C6.6772 15.126 7.07119 16.1495 7.83525 16.9047C7.94751 17.0155 8.06541 17.1184 8.18869 17.2133C8.84376 17.7175 9.64462 17.9908 10.4881 17.9908C10.6787 17.9908 10.8671 17.9767 11.0523 17.9493C11.8402 17.8326 12.5673 17.4719 13.141 16.9047C13.846 16.2079 14.2356 15.2828 14.2398 14.2982L14.2297 9.92568C14.566 10.1851 14.9338 10.3998 15.3285 10.5665C15.9423 10.8254 16.5931 10.9567 17.263 10.9565V9.53592V9.00881C17.2635 9.00928 17.2578 9.00928 17.2574 9.00928Z" fill="#F37124"/>
</g>
<defs>
<clipPath id="clip0_0_1">
<rect width="12" height="12" fill="white" transform="translate(5.99805 6.00049)"/>
</clipPath>
</defs>
</svg>
