<svg width="62" height="63" viewBox="0 0 62 63" fill="none" xmlns="http://www.w3.org/2000/svg">
<path d="M61.1972 13.1037C61.2822 12.9108 61.3351 12.6981 61.3351 12.4741C61.3351 11.81 60.9641 11.2424 60.3241 11.0142V7.97204L61.0838 7.76775C61.4453 7.66906 61.7112 7.34586 61.7224 6.97121C61.7337 6.59655 61.4989 6.25863 61.144 6.13844L45.5666 0.863429C45.4059 0.808901 45.2327 0.803781 45.069 0.848453L25.7374 6.12359C25.3759 6.22228 25.1201 6.54548 25.1088 6.92013C25.0975 7.29479 25.3311 7.63271 25.6861 7.7529L41.261 13.028C41.3496 13.058 41.4371 13.0731 41.5295 13.0731C41.6049 13.0731 41.6708 13.0631 41.7443 13.043L59.172 8.28218V11.0143C58.66 11.2426 58.1885 11.8101 58.1885 12.4742C58.1885 12.6897 58.2485 12.8952 58.3275 13.0822C57.9829 13.468 57.764 13.9911 57.764 14.5676V19.266C57.764 19.5797 58.0263 19.8341 58.34 19.8341C58.6537 19.8341 58.916 19.5797 58.916 19.266V14.5676C58.916 14.311 58.9769 14.0771 59.111 13.8989C59.138 13.9114 59.172 13.923 59.172 13.9339V20.5415C59.172 20.8552 59.4343 21.1097 59.748 21.1097C60.0617 21.1097 60.324 20.8554 60.324 20.5415V13.9339C60.324 13.9258 60.3583 13.9179 60.3785 13.9089C60.5081 14.0858 60.58 14.3157 60.58 14.5676V19.266C60.58 19.5797 60.8423 19.8341 61.156 19.8341C61.4697 19.8341 61.732 19.5797 61.732 19.266V14.5676C61.732 14.0015 61.5308 13.4873 61.1972 13.1037Z" fill="url(#paint0_linear_266_48)"/>
<path d="M53.1562 22.0186V13.4626C53.1562 13.2009 53.0535 12.9537 52.8477 12.7921C52.6418 12.6305 52.3906 12.5725 52.1365 12.6349L41.3831 15.2728L34.7883 12.9976C34.5278 12.908 34.2541 12.9495 34.0298 13.1095C33.8055 13.2695 33.7002 13.5279 33.7002 13.8034V22.0184C33.7002 22.3505 33.8643 22.6524 34.1657 22.7918L36.444 23.8592C38.1854 24.665 40.0807 25.0749 41.9836 25.0749C43.0515 25.0749 44.1171 24.9458 45.1621 24.685L52.5264 22.8452C52.9058 22.7507 53.1562 22.4097 53.1562 22.0186Z" fill="url(#paint1_linear_266_48)"/>
<path d="M50.5552 45.3146C50.8274 45.0253 50.6554 44.5494 50.2612 44.5012L41.7691 43.4598C41.4442 43.42 41.1739 43.7071 41.2333 44.0291L42.7878 52.4424C42.86 52.8329 43.3453 52.9758 43.6176 52.6866L45.438 50.7523C45.6212 50.5576 45.9275 50.548 46.1226 50.7308L51.3754 55.6525C51.5705 55.8353 51.8768 55.8257 52.06 55.631L54.0605 53.5053C54.2443 53.31 54.2346 53.0027 54.0388 52.8192L48.7892 47.9005C48.5935 47.717 48.5839 47.4097 48.7675 47.2144L50.5552 45.3146Z" fill="url(#paint2_linear_266_48)"/>
<path d="M17.9562 40.5495C17.9562 40.0192 17.5263 39.5895 16.9962 39.5895C16.466 39.5895 16.0362 40.0192 16.0362 40.5495V40.576H11.6842V36.224H13.4909C14.0211 36.224 14.4509 35.7943 14.4509 35.264C14.4509 34.7337 14.0211 34.304 13.4909 34.304H10.6828C10.1526 34.304 9.76416 34.711 9.76416 35.2412V41.5665C9.76416 42.0969 10.1526 42.496 10.6828 42.496H17.0082C17.5384 42.496 17.9562 42.0969 17.9562 41.5665V40.5495Z" fill="url(#paint3_linear_266_48)"/>
<path d="M19.5267 33.8443C19.1519 33.4697 18.5441 33.4694 18.1692 33.8443L14.4441 37.5694L14.2917 37.4421C13.8847 37.1024 13.2794 37.1568 12.9395 37.5636C12.5996 37.9707 12.654 38.576 13.0611 38.9158L13.8871 39.6056C14.0659 39.755 14.2844 39.8287 14.5022 39.8287C14.7489 39.8287 14.9946 39.7341 15.1813 39.5476L19.5269 35.2021C19.9016 34.8271 19.9016 34.2194 19.5267 33.8443Z" fill="url(#paint4_linear_266_48)"/>
<path d="M43.7483 35.3919C43.7483 34.8616 43.3185 34.4319 42.7883 34.4319H23.8443C23.3141 34.4319 22.8843 34.8616 22.8843 35.3919C22.8843 35.9222 23.3141 36.3519 23.8443 36.3519H42.7883C43.3185 36.3519 43.7483 35.9222 43.7483 35.3919Z" fill="url(#paint5_linear_266_48)"/>
<path d="M37.0283 38.9119H23.8443C23.3141 38.9119 22.8843 39.3416 22.8843 39.8719C22.8843 40.4022 23.3141 40.8319 23.8443 40.8319H37.0283C37.5585 40.8319 37.9883 40.4022 37.9883 39.8719C37.9883 39.3416 37.5585 38.9119 37.0283 38.9119Z" fill="url(#paint6_linear_266_48)"/>
<path d="M16.9962 46.4639H10.7242C10.194 46.4639 9.76416 46.8937 9.76416 47.4239V53.6959C9.76416 54.226 10.194 54.6559 10.7242 54.6559H16.9962C17.5263 54.6559 17.9562 54.226 17.9562 53.6959V47.4239C17.9562 46.8937 17.5263 46.4639 16.9962 46.4639ZM16.0362 52.7359H11.6842V48.3839H16.0362V52.7359Z" fill="url(#paint7_linear_266_48)"/>
<path d="M37.0283 46.72H23.8443C23.3141 46.72 22.8843 47.1497 22.8843 47.68C22.8843 48.2103 23.3141 48.64 23.8443 48.64H37.0283C37.5585 48.64 37.9883 48.2103 37.9883 47.68C37.9883 47.1497 37.5585 46.72 37.0283 46.72Z" fill="url(#paint8_linear_266_48)"/>
<path d="M37.0283 51.2H23.8443C23.3141 51.2 22.8843 51.6296 22.8843 52.16C22.8843 52.6903 23.3141 53.12 23.8443 53.12H37.0283C37.5585 53.12 37.9883 52.6903 37.9883 52.16C37.9883 51.6296 37.5585 51.2 37.0283 51.2Z" fill="url(#paint9_linear_266_48)"/>
<path d="M60.0622 22.528H57.7974L50.6175 27.392H58.9161V57.3321C58.9161 59.0282 57.5284 60.416 55.8322 60.416H4.96272C3.30218 60.416 1.95613 59.0699 1.95613 57.4094V27.392H37.7572L32.7182 25.2052C31.8379 24.8231 31.2681 23.9549 31.2681 22.9952V18.3299L4.96272 18.304C2.24183 18.304 0.0361328 20.5097 0.0361328 23.2305V57.3321C0.0361328 60.0842 2.28791 62.336 5.04004 62.336H55.8204C58.5791 62.336 60.8361 60.0789 60.8361 57.3203V23.3423C60.8361 23.0732 60.6971 22.528 60.0622 22.528ZM19.5394 21.4231C20.4526 21.4231 21.193 22.1634 21.193 23.0767C21.193 23.99 20.4526 24.7303 19.5394 24.7303C18.6261 24.7303 17.8857 23.99 17.8857 23.0767C17.8857 22.1634 18.6261 21.4231 19.5394 21.4231ZM13.5541 21.4231C14.4674 21.4231 15.2077 22.1634 15.2077 23.0767C15.2077 23.99 14.4674 24.7303 13.5541 24.7303C12.6408 24.7303 11.9005 23.99 11.9005 23.0767C11.9005 22.1634 12.6408 21.4231 13.5541 21.4231ZM7.5688 21.4231C8.48208 21.4231 9.22244 22.1634 9.22244 23.0767C9.22244 23.99 8.48208 24.7303 7.5688 24.7303C6.65552 24.7303 5.91517 23.99 5.91517 23.0767C5.91517 22.1634 6.65552 21.4231 7.5688 21.4231Z" fill="url(#paint10_linear_266_48)"/>
<defs>
<linearGradient id="paint0_linear_266_48" x1="61.732" y1="0.818362" x2="23.925" y2="18.5925" gradientUnits="userSpaceOnUse">
<stop stop-color="#2D7CF2"/>
<stop offset="1" stop-color="#273B92"/>
</linearGradient>
<linearGradient id="paint1_linear_266_48" x1="53.1562" y1="12.6104" x2="32.1112" y2="21.1667" gradientUnits="userSpaceOnUse">
<stop stop-color="#2D7CF2"/>
<stop offset="1" stop-color="#273B92"/>
</linearGradient>
<linearGradient id="paint2_linear_266_48" x1="54.1922" y1="43.4561" x2="38.9888" y2="47.6216" gradientUnits="userSpaceOnUse">
<stop stop-color="#2D7CF2"/>
<stop offset="1" stop-color="#273B92"/>
</linearGradient>
<linearGradient id="paint3_linear_266_48" x1="17.9562" y1="34.304" x2="8.28642" y2="36.8227" gradientUnits="userSpaceOnUse">
<stop stop-color="#2D7CF2"/>
<stop offset="1" stop-color="#273B92"/>
</linearGradient>
<linearGradient id="paint4_linear_266_48" x1="19.8079" y1="33.5632" x2="11.5839" y2="35.9878" gradientUnits="userSpaceOnUse">
<stop stop-color="#2D7CF2"/>
<stop offset="1" stop-color="#273B92"/>
</linearGradient>
<linearGradient id="paint5_linear_266_48" x1="43.7483" y1="34.4319" x2="40.83" y2="42.692" gradientUnits="userSpaceOnUse">
<stop stop-color="#2D7CF2"/>
<stop offset="1" stop-color="#273B92"/>
</linearGradient>
<linearGradient id="paint6_linear_266_48" x1="37.9883" y1="38.9119" x2="34.3261" y2="46.4158" gradientUnits="userSpaceOnUse">
<stop stop-color="#2D7CF2"/>
<stop offset="1" stop-color="#273B92"/>
</linearGradient>
<linearGradient id="paint7_linear_266_48" x1="17.9562" y1="46.4639" x2="8.28642" y2="48.9826" gradientUnits="userSpaceOnUse">
<stop stop-color="#2D7CF2"/>
<stop offset="1" stop-color="#273B92"/>
</linearGradient>
<linearGradient id="paint8_linear_266_48" x1="37.9883" y1="46.72" x2="34.3261" y2="54.2239" gradientUnits="userSpaceOnUse">
<stop stop-color="#2D7CF2"/>
<stop offset="1" stop-color="#273B92"/>
</linearGradient>
<linearGradient id="paint9_linear_266_48" x1="37.9883" y1="51.2" x2="34.3261" y2="58.7039" gradientUnits="userSpaceOnUse">
<stop stop-color="#2D7CF2"/>
<stop offset="1" stop-color="#273B92"/>
</linearGradient>
<linearGradient id="paint10_linear_266_48" x1="60.8361" y1="18.304" x2="-7.02251" y2="42.7104" gradientUnits="userSpaceOnUse">
<stop stop-color="#2D7CF2"/>
<stop offset="1" stop-color="#273B92"/>
</linearGradient>
</defs>
</svg>
