<svg width="65" height="64" viewBox="0 0 65 64" fill="none" xmlns="http://www.w3.org/2000/svg">
<g clip-path="url(#clip0_266_395)">
<path d="M21.6858 3.9121C21.8057 3.91283 21.9246 3.89078 22.0362 3.84713C22.2677 3.75899 22.4578 3.58747 22.5692 3.36629C22.6806 3.14511 22.7053 2.89026 22.6384 2.65182C22.5715 2.41337 22.4178 2.20858 22.2076 2.07767C21.9973 1.94676 21.7457 1.89921 21.5022 1.94436C21.2587 1.98951 21.0409 2.1241 20.8916 2.32167C20.7422 2.51925 20.6722 2.76552 20.6952 3.01211C20.7182 3.25869 20.8326 3.48776 21.0159 3.65429C21.1992 3.82083 21.4382 3.91279 21.6858 3.9121Z" fill="url(#paint0_linear_266_395)"/>
<path d="M18.0578 5.52811C18.2201 5.52921 18.3802 5.48958 18.5233 5.41284C18.7393 5.299 18.9062 5.11001 18.9925 4.88154C19.0787 4.65307 19.0784 4.40094 18.9915 4.17271C18.9046 3.94449 18.7371 3.75598 18.5208 3.64275C18.3044 3.52952 18.054 3.49942 17.817 3.55812C17.5799 3.61681 17.3726 3.76025 17.234 3.96136C17.0955 4.16247 17.0354 4.40733 17.065 4.64974C17.0946 4.89214 17.212 5.11532 17.3949 5.27714C17.5778 5.43896 17.8136 5.52823 18.0578 5.52811Z" fill="url(#paint1_linear_266_395)"/>
<path d="M11.5666 10.0799C11.7291 10.0799 11.8893 10.0403 12.033 9.96449C12.1768 9.88865 12.2999 9.77889 12.3917 9.64471C12.4835 9.51053 12.5412 9.35599 12.5597 9.1945C12.5782 9.033 12.5571 8.86941 12.4981 8.71792C12.4392 8.56644 12.3441 8.43162 12.2213 8.32517C12.0984 8.21871 11.9515 8.14383 11.7931 8.10702C11.6348 8.07021 11.4699 8.07257 11.3126 8.11391C11.1554 8.15525 11.0107 8.23431 10.8909 8.34425V8.33941C10.7413 8.47538 10.6365 8.65347 10.5901 8.85022C10.5438 9.04698 10.5581 9.25315 10.6313 9.44159C10.7044 9.63003 10.833 9.79188 10.9999 9.90583C11.1669 10.0198 11.3644 10.0805 11.5666 10.0799Z" fill="url(#paint2_linear_266_395)"/>
<path d="M1.57243 35.0363C1.77059 35.0243 1.96072 34.9538 2.11873 34.8336C2.27675 34.7135 2.39554 34.5491 2.46005 34.3613C2.52456 34.1736 2.53188 33.9709 2.48109 33.779C2.4303 33.5871 2.32368 33.4146 2.17475 33.2834C2.02581 33.1521 1.84127 33.068 1.6445 33.0418C1.44773 33.0155 1.24759 33.0483 1.06945 33.1359C0.891312 33.2235 0.743185 33.362 0.643844 33.5338C0.544504 33.7057 0.49842 33.9032 0.511435 34.1013C0.526362 34.355 0.637937 34.5933 0.823208 34.7672C1.00848 34.9411 1.25336 35.0374 1.50747 35.0363H1.57243Z" fill="url(#paint3_linear_266_395)"/>
<path d="M1.44245 31.0649H1.50229C1.75811 31.057 2.00059 30.9489 2.17735 30.7638C2.35412 30.5787 2.45099 30.3315 2.44706 30.0756C2.44314 29.8197 2.33872 29.5756 2.15635 29.396C1.97399 29.2164 1.72831 29.1157 1.47237 29.1157C1.21642 29.1157 0.970748 29.2164 0.788385 29.396C0.606021 29.5756 0.501602 29.8197 0.497674 30.0756C0.493745 30.3315 0.590622 30.5787 0.767387 30.7638C0.944152 30.9489 1.18662 31.057 1.44245 31.0649Z" fill="url(#paint4_linear_266_395)"/>
<path d="M2.68364 23.2264C2.7853 23.26 2.89177 23.2768 2.99886 23.2762C3.24951 23.2752 3.4906 23.1798 3.67413 23.0091C3.85767 22.8384 3.9702 22.6048 3.98932 22.3549C4.00845 22.105 3.93276 21.857 3.77733 21.6604C3.6219 21.4637 3.39813 21.3328 3.15055 21.2937C2.90296 21.2546 2.64973 21.3101 2.44124 21.4493C2.23276 21.5884 2.08431 21.801 2.02545 22.0446C1.96659 22.2883 2.00163 22.5451 2.12359 22.7641C2.24556 22.9831 2.44551 23.1481 2.68364 23.2264Z" fill="url(#paint5_linear_266_395)"/>
<path d="M14.6695 7.59902C14.8744 7.59836 15.0739 7.53362 15.2401 7.41387C15.4316 7.27651 15.5676 7.07522 15.6237 6.84636C15.6797 6.61749 15.6521 6.37612 15.5458 6.16584C15.4395 5.95555 15.2615 5.79019 15.044 5.69963C14.8264 5.60907 14.5837 5.59927 14.3596 5.672C14.1354 5.74473 13.9447 5.89519 13.8218 6.09622C13.6989 6.29726 13.6519 6.53561 13.6893 6.76825C13.7267 7.00089 13.8461 7.21249 14.0258 7.36484C14.2056 7.51718 14.4339 7.60024 14.6695 7.59902Z" fill="url(#paint6_linear_266_395)"/>
<path d="M5.88654 15.9626C6.05245 16.0704 6.24662 16.1266 6.44447 16.124C6.64232 16.1214 6.83494 16.0601 6.99796 15.948C7.16098 15.8358 7.28705 15.6778 7.36022 15.494C7.43338 15.3101 7.45035 15.1087 7.40898 14.9152C7.3676 14.7217 7.26974 14.5449 7.12779 14.407C6.98584 14.2692 6.80618 14.1766 6.61155 14.1409C6.41693 14.1052 6.2161 14.1281 6.03449 14.2066C5.85287 14.2852 5.69865 14.4158 5.59134 14.5821C5.44892 14.8047 5.40004 15.0745 5.4553 15.333C5.51057 15.5914 5.66552 15.8177 5.88654 15.9626Z" fill="url(#paint7_linear_266_395)"/>
<path d="M4.05002 19.4946C4.18651 19.5573 4.335 19.5897 4.48523 19.5894C4.7287 19.5864 4.96256 19.4939 5.14222 19.3296C5.32188 19.1652 5.43477 18.9405 5.45936 18.6983C5.48394 18.456 5.41851 18.2132 5.27553 18.0161C5.13256 17.819 4.92204 17.6815 4.68413 17.6296C4.44622 17.5778 4.19756 17.6154 3.98557 17.7352C3.77358 17.8549 3.61309 18.0486 3.5347 18.2791C3.45632 18.5096 3.46552 18.7609 3.56056 18.9851C3.6556 19.2093 3.82983 19.3906 4.05002 19.4946Z" fill="url(#paint8_linear_266_395)"/>
<path d="M1.80762 27.1031C1.87003 27.117 1.93382 27.1237 1.99775 27.1231C2.18728 27.1232 2.37291 27.0693 2.53301 26.9679C2.6931 26.8664 2.82106 26.7216 2.90195 26.5502C2.98284 26.3788 3.01334 26.1879 2.98988 25.9998C2.96642 25.8118 2.88997 25.6343 2.76945 25.488C2.64894 25.3417 2.48931 25.2327 2.30921 25.1737C2.1291 25.1147 1.93592 25.1081 1.75222 25.1547C1.56851 25.2013 1.40184 25.2992 1.27164 25.4369C1.14144 25.5747 1.05309 25.7466 1.01688 25.9326C0.991459 26.0614 0.991775 26.194 1.01781 26.3227C1.04385 26.4514 1.0951 26.5736 1.1686 26.6824C1.2421 26.7912 1.33641 26.8844 1.44608 26.9566C1.55575 27.0288 1.67863 27.0786 1.80762 27.1031Z" fill="url(#paint9_linear_266_395)"/>
<path d="M25.4944 2.77161C25.5702 2.77322 25.6458 2.76484 25.7194 2.74668C25.9698 2.68983 26.189 2.53931 26.3319 2.326C26.4749 2.11269 26.5308 1.85276 26.4881 1.59955C26.4455 1.34633 26.3076 1.11903 26.1027 0.964282C25.8978 0.809533 25.6414 0.739069 25.3862 0.767348C25.131 0.795627 24.8963 0.920505 24.7302 1.11636C24.5641 1.31222 24.4793 1.5642 24.4932 1.8206C24.507 2.07701 24.6184 2.31839 24.8046 2.49524C24.9908 2.67208 25.2376 2.77097 25.4944 2.77161Z" fill="url(#paint10_linear_266_395)"/>
<path d="M47.9696 6.28818C48.1244 6.38394 48.3031 6.43421 48.4852 6.43326C48.7279 6.43427 48.9628 6.34726 49.1463 6.18835C49.3298 6.02944 49.4494 5.80941 49.4831 5.56902C49.5168 5.32864 49.4622 5.08419 49.3295 4.88097C49.1967 4.67775 48.9948 4.52953 48.7611 4.46378C48.5275 4.39804 48.2779 4.41921 48.0587 4.52338C47.8394 4.62756 47.6654 4.80767 47.5688 5.03035C47.4721 5.25303 47.4595 5.50318 47.5332 5.73446C47.6069 5.96574 47.7619 6.16246 47.9696 6.28818Z" fill="url(#paint11_linear_266_395)"/>
<path d="M51.1327 8.48444C51.3088 8.62495 51.5278 8.70081 51.7531 8.69937C51.9605 8.69953 52.1628 8.63512 52.3319 8.51508C52.5009 8.39504 52.6285 8.22532 52.6967 8.02951C52.7649 7.83369 52.7705 7.62148 52.7127 7.42234C52.6548 7.22321 52.5364 7.04704 52.3738 6.91828V6.91338C52.2707 6.83174 52.1524 6.77124 52.0259 6.73532C51.8994 6.69939 51.767 6.68876 51.6363 6.70403C51.5057 6.7193 51.3793 6.76017 51.2645 6.82429C51.1496 6.88842 51.0486 6.97456 50.967 7.07778C50.8855 7.18099 50.8251 7.29927 50.7893 7.42584C50.7535 7.55241 50.743 7.6848 50.7583 7.81544C50.7737 7.94607 50.8147 8.07239 50.8789 8.18718C50.9432 8.30197 51.0294 8.40299 51.1327 8.48444Z" fill="url(#paint12_linear_266_395)"/>
<path d="M54.7008 11.3658C54.9324 11.367 55.1573 11.2879 55.3372 11.1422C55.5172 10.9964 55.6411 10.7928 55.6881 10.566C55.735 10.3392 55.702 10.1032 55.5947 9.89796C55.4874 9.69273 55.3124 9.53094 55.0994 9.44007C54.8863 9.3492 54.6484 9.33483 54.426 9.39941C54.2036 9.46399 54.0104 9.60353 53.8792 9.79436C53.748 9.9852 53.6868 10.2156 53.7061 10.4463C53.7254 10.6771 53.824 10.8941 53.9851 11.0605C54.0773 11.1575 54.1883 11.2346 54.3114 11.2871C54.4345 11.3396 54.567 11.3664 54.7008 11.3658Z" fill="url(#paint13_linear_266_395)"/>
<path d="M61.4972 24.2917C61.5541 24.5057 61.6802 24.6949 61.8558 24.8297C62.0314 24.9645 62.2467 25.0375 62.4681 25.0372C62.5543 25.0374 62.6402 25.0256 62.7232 25.002C62.9136 24.9507 63.0846 24.8441 63.2145 24.6956C63.3445 24.5472 63.4275 24.3636 63.4533 24.1681C63.479 23.9725 63.4462 23.7737 63.3591 23.5967C63.272 23.4197 63.1344 23.2725 62.9637 23.1736C62.7931 23.0747 62.5969 23.0286 62.4001 23.0411C62.2032 23.0535 62.0144 23.124 61.8576 23.2436C61.7007 23.3632 61.5827 23.5265 61.5186 23.7131C61.4545 23.8996 61.447 24.101 61.4972 24.2917Z" fill="url(#paint14_linear_266_395)"/>
<path d="M63.1037 26.9429C62.852 26.976 62.6224 27.1036 62.4614 27.2998C62.3004 27.4959 62.22 27.746 62.2365 27.9993C62.253 28.2526 62.3653 28.4901 62.5504 28.6636C62.7356 28.8372 62.9799 28.9339 63.2337 28.934C63.2772 28.9349 63.3207 28.9331 63.3639 28.9286C63.4945 28.9116 63.6204 28.8689 63.7344 28.8031C63.8485 28.7372 63.9483 28.6495 64.0283 28.5449C64.1083 28.4403 64.1668 28.3209 64.2005 28.1936C64.2342 28.0663 64.2424 27.9336 64.2246 27.8031H64.2297C64.1933 27.5403 64.0546 27.3024 63.8437 27.1413C63.6328 26.9802 63.3669 26.9089 63.1037 26.9429Z" fill="url(#paint15_linear_266_395)"/>
<path d="M60.2761 20.6498C60.3261 20.7714 60.3995 20.8819 60.4921 20.9751C60.5848 21.0683 60.6949 21.1424 60.8162 21.193C60.9375 21.2436 61.0676 21.2699 61.199 21.2702C61.3305 21.2705 61.4607 21.245 61.5822 21.195C61.7652 21.1197 61.9217 20.9919 62.032 20.8276C62.1423 20.6634 62.2014 20.4702 62.2019 20.2724C62.2024 20.0746 62.1442 19.8811 62.0347 19.7163C61.9253 19.5515 61.7694 19.4229 61.5869 19.3467C61.4043 19.2705 61.2033 19.2502 61.0091 19.2882C60.815 19.3263 60.6365 19.421 60.4962 19.5605C60.356 19.6999 60.2602 19.8779 60.221 20.0718C60.1818 20.2657 60.201 20.4668 60.2761 20.6498Z" fill="url(#paint16_linear_266_395)"/>
<path d="M29.4182 2.13649C29.4483 2.13649 29.4832 2.1316 29.5133 2.1316C29.6442 2.11935 29.7714 2.0814 29.8877 2.01992C30.0039 1.95845 30.1069 1.87465 30.1907 1.77333C30.2745 1.67201 30.3375 1.55516 30.3761 1.42946C30.4147 1.30376 30.4282 1.17168 30.4157 1.04078C30.4032 0.909886 30.365 0.782737 30.3033 0.666614C30.2416 0.550491 30.1576 0.447675 30.0561 0.364049C29.9547 0.280423 29.8377 0.21763 29.7119 0.179262C29.5861 0.140894 29.454 0.127706 29.3232 0.140451C29.192 0.15199 29.0645 0.189483 28.948 0.250752C28.8314 0.312021 28.7283 0.395843 28.6444 0.497343C28.5606 0.598844 28.4978 0.715998 28.4596 0.841994C28.4215 0.96799 28.4087 1.10031 28.4222 1.23127C28.4466 1.47873 28.562 1.70832 28.746 1.87556C28.93 2.0428 29.1696 2.13578 29.4182 2.13649Z" fill="url(#paint17_linear_266_395)"/>
<path d="M33.3613 1.99622C33.3707 2.00058 33.381 2.00243 33.3913 2.00159C33.7065 2.0538 34.0296 1.97919 34.2899 1.79406C34.5503 1.60892 34.7269 1.3283 34.7811 1.01344C34.8353 0.698589 34.7627 0.375079 34.5792 0.11354C34.3957 -0.148 34.1162 -0.326327 33.8017 -0.382511C33.4872 -0.438695 33.1633 -0.368173 32.9006 -0.18634C32.6379 -0.0045073 32.4578 0.273867 32.3996 0.588012C32.3414 0.902157 32.4099 1.22656 32.5901 1.49039C32.7703 1.75423 33.0475 1.93607 33.3613 1.99622Z" fill="url(#paint18_linear_266_395)"/>
<path d="M44.557 4.51746C44.6833 4.57244 44.8195 4.60135 44.9573 4.60246C45.2057 4.60344 45.4456 4.51229 45.6307 4.34661C45.8158 4.18094 45.9329 3.95252 45.9593 3.70553C45.9857 3.45853 45.9196 3.21051 45.7738 3.00942C45.628 2.80833 45.4128 2.66847 45.1698 2.61687C44.9268 2.56527 44.6733 2.6056 44.4583 2.73007C44.2433 2.85454 44.0822 3.0543 44.0059 3.29072C43.9297 3.52714 43.9439 3.78342 44.0457 4.01002C44.1474 4.23661 44.3296 4.41741 44.557 4.51746Z" fill="url(#paint19_linear_266_395)"/>
<path d="M40.9432 3.19684C41.034 3.22471 41.1285 3.23823 41.2235 3.23691C41.4766 3.23693 41.7204 3.14102 41.9057 2.96848C42.091 2.79594 42.204 2.5596 42.2219 2.30706C42.2399 2.05453 42.1615 1.80457 42.0025 1.60753C41.8436 1.41049 41.6158 1.28102 41.3652 1.24519C41.1146 1.20935 40.8597 1.26983 40.6519 1.41443C40.4441 1.55903 40.2988 1.77701 40.2453 2.02447C40.1918 2.27192 40.234 2.53046 40.3635 2.748C40.493 2.96554 40.7002 3.12592 40.9432 3.19684Z" fill="url(#paint20_linear_266_395)"/>
<path d="M37.1901 2.35682C37.2454 2.36171 37.2952 2.36659 37.3505 2.36659C37.6048 2.36131 37.8472 2.25789 38.027 2.07797C38.2067 1.89805 38.31 1.65557 38.3151 1.40127C38.3202 1.14696 38.2267 0.90054 38.0543 0.71356C37.8819 0.526579 37.6438 0.413529 37.3899 0.398065C37.136 0.3826 36.886 0.465918 36.6921 0.630586C36.4983 0.795254 36.3756 1.02851 36.3498 1.28156C36.324 1.5346 36.3971 1.78782 36.5537 1.98823C36.7103 2.18864 36.9384 2.32072 37.1901 2.35682Z" fill="url(#paint21_linear_266_395)"/>
<path d="M2.99888 37.7827C2.96172 37.5971 2.87264 37.4258 2.74199 37.2889C2.61134 37.1519 2.44449 37.0549 2.26085 37.009C2.07721 36.9632 1.88432 36.9704 1.70463 37.0299C1.52493 37.0893 1.36581 37.1986 1.24578 37.3449C1.12574 37.4913 1.04972 37.6687 1.02656 37.8566C1.00339 38.0444 1.03404 38.235 1.11493 38.4061C1.19583 38.5772 1.32364 38.7219 1.48351 38.8232C1.64338 38.9245 1.82873 38.9784 2.01801 38.9785C2.08179 38.9767 2.14534 38.97 2.20811 38.9585C2.3374 38.9336 2.46048 38.8833 2.57028 38.8106C2.68007 38.7379 2.77443 38.6442 2.84791 38.535C2.92139 38.4257 2.97256 38.303 2.99847 38.1739C3.02438 38.0448 3.02451 37.9118 2.99888 37.7827Z" fill="url(#paint22_linear_266_395)"/>
<path d="M57.9391 49.7435C57.7261 49.586 57.4593 49.5194 57.1973 49.5582C56.9352 49.5969 56.6992 49.738 56.541 49.9505C56.3828 50.1629 56.3152 50.4294 56.3531 50.6916C56.391 50.9538 56.5312 51.1903 56.7431 51.3492C56.9178 51.4758 57.1279 51.544 57.3435 51.5442C57.4991 51.5454 57.6528 51.5098 57.792 51.4403C57.9311 51.3707 58.0519 51.2692 58.1443 51.1441C58.223 51.0387 58.2801 50.9189 58.3124 50.7914C58.3447 50.6639 58.3515 50.5313 58.3324 50.4012C58.3134 50.2711 58.2688 50.146 58.2013 50.0332C58.1338 49.9203 58.0447 49.8219 57.9391 49.7435Z" fill="url(#paint23_linear_266_395)"/>
<path d="M57.2886 14.3823C57.4744 14.3823 57.6566 14.3306 57.8146 14.2329C57.9727 14.1352 58.1005 13.9955 58.1836 13.8293C58.2667 13.6631 58.3019 13.4771 58.2853 13.292C58.2687 13.1069 58.2008 12.9301 58.0894 12.7815V12.7761C57.9865 12.6399 57.8506 12.5322 57.6945 12.4632C57.5384 12.3942 57.3672 12.3662 57.1973 12.3819C57.0273 12.3976 56.8642 12.4565 56.7233 12.5529C56.5825 12.6493 56.4686 12.78 56.3924 12.9328C56.3163 13.0855 56.2804 13.2552 56.2882 13.4257C56.2959 13.5962 56.3471 13.7619 56.4369 13.9071C56.5266 14.0523 56.652 14.1721 56.801 14.2553C56.9501 14.3384 57.1179 14.3822 57.2886 14.3823Z" fill="url(#paint24_linear_266_395)"/>
<path d="M37.2848 61.6289C37.037 61.6701 36.8137 61.8028 36.6591 62.0008C36.5045 62.1988 36.4299 62.4477 36.45 62.6981C36.4702 62.9485 36.5836 63.1822 36.7679 63.353C36.9522 63.5237 37.1939 63.619 37.4451 63.62C37.4988 63.6201 37.5524 63.615 37.6052 63.6049C37.7354 63.5844 37.8603 63.5384 37.9727 63.4695C38.0851 63.4006 38.1828 63.3102 38.2601 63.2034C38.3374 63.0966 38.3929 62.9757 38.4234 62.8474C38.4539 62.7191 38.4587 62.5861 38.4376 62.456C38.4165 62.3258 38.3699 62.2012 38.3005 62.0891C38.231 61.977 38.1402 61.8798 38.0331 61.8029C37.9259 61.726 37.8047 61.6711 37.6763 61.6413C37.5479 61.6114 37.4148 61.6072 37.2848 61.6289Z" fill="url(#paint25_linear_266_395)"/>
<path d="M54.0453 52.8748C53.9087 53.0161 53.8167 53.1945 53.7809 53.3878C53.7451 53.5811 53.767 53.7806 53.8438 53.9615C53.9207 54.1424 54.0491 54.2966 54.2131 54.405C54.3771 54.5134 54.5693 54.5711 54.7659 54.5709C54.8997 54.5714 55.0322 54.5446 55.1553 54.4921C55.2784 54.4396 55.3894 54.3625 55.4816 54.2655C55.5735 54.1713 55.6459 54.0599 55.6946 53.9377C55.7433 53.8155 55.7674 53.6848 55.7656 53.5533C55.7637 53.4217 55.7358 53.2918 55.6836 53.171C55.6314 53.0502 55.5559 52.9409 55.4614 52.8494C55.3668 52.7578 55.2552 52.6859 55.1327 52.6376C55.0103 52.5893 54.8796 52.5657 54.748 52.568C54.6165 52.5704 54.4867 52.5987 54.3661 52.6513C54.2455 52.704 54.1365 52.7799 54.0453 52.8748Z" fill="url(#paint26_linear_266_395)"/>
<path d="M41.0383 60.7734C40.8079 60.8415 40.6097 60.9903 40.4799 61.1926C40.3501 61.3948 40.2974 61.637 40.3314 61.8749C40.3654 62.1128 40.4838 62.3305 40.6651 62.4883C40.8463 62.6461 41.0783 62.7334 41.3186 62.7342C41.4151 62.7334 41.511 62.7199 41.604 62.6942C41.8584 62.6189 42.0726 62.4457 42.1994 62.2127C42.3263 61.9796 42.3554 61.7058 42.2805 61.4513C42.2055 61.1967 42.0326 60.9824 41.7997 60.8553C41.5668 60.7282 41.2929 60.6987 41.0383 60.7734Z" fill="url(#paint27_linear_266_395)"/>
<path d="M48.05 57.662C47.8808 57.765 47.746 57.9158 47.6626 58.0953C47.5791 58.2749 47.5508 58.4752 47.5812 58.6708C47.6116 58.8665 47.6993 59.0488 47.8332 59.1946C47.9672 59.3404 48.1413 59.4433 48.3337 59.4901C48.5261 59.537 48.7281 59.5257 48.9141 59.4578C49.1001 59.3899 49.2618 59.2683 49.3787 59.1085C49.4956 58.9487 49.5625 58.7579 49.571 58.56C49.5795 58.3622 49.5291 58.1663 49.4262 57.9971C49.2872 57.7713 49.0646 57.6094 48.807 57.5467C48.5493 57.4839 48.2773 57.5254 48.05 57.662Z" fill="url(#paint28_linear_266_395)"/>
<path d="M44.642 59.4427C44.4323 59.5362 44.2611 59.6989 44.157 59.9036C44.053 60.1082 44.0225 60.3425 44.0705 60.567C44.1186 60.7915 44.2424 60.9927 44.4211 61.1368C44.5999 61.2809 44.8227 61.3592 45.0523 61.3586C45.1919 61.3594 45.3301 61.3304 45.4577 61.2736C45.6996 61.1649 45.8885 60.9647 45.983 60.7169C46.0775 60.4691 46.07 60.194 45.9621 59.9518C45.8542 59.7095 45.6546 59.5199 45.4072 59.4245C45.1598 59.3291 44.8846 59.3356 44.642 59.4427Z" fill="url(#paint29_linear_266_395)"/>
<path d="M51.1977 55.461C50.9909 55.627 50.8584 55.8683 50.8293 56.1319C50.8002 56.3955 50.8769 56.6598 51.0425 56.8669C51.1356 56.9847 51.2543 57.0796 51.3896 57.1446C51.5249 57.2097 51.6732 57.243 51.8233 57.2421C52.0123 57.2434 52.1979 57.191 52.3583 57.0909C52.5187 56.9908 52.6473 56.8472 52.7291 56.6768C52.811 56.5063 52.8427 56.3162 52.8205 56.1284C52.7984 55.9406 52.7233 55.7631 52.604 55.6164C52.438 55.4095 52.1967 55.2769 51.933 55.2478C51.6693 55.2186 51.4049 55.2953 51.1977 55.461Z" fill="url(#paint30_linear_266_395)"/>
<path d="M62.7435 38.8936C62.4869 38.829 62.2151 38.8677 61.9867 39.0014C61.7583 39.1352 61.5916 39.3533 61.5224 39.6088C61.4888 39.7359 61.4806 39.8685 61.4984 39.9988C61.5163 40.1291 61.5597 40.2545 61.6262 40.368C61.6927 40.4814 61.7811 40.5806 61.8861 40.6597C61.9911 40.7388 62.1108 40.7964 62.2382 40.8291C62.321 40.8532 62.407 40.8651 62.4933 40.8643C62.7374 40.865 62.9734 40.7765 63.1568 40.6154C63.3403 40.4543 63.4585 40.2317 63.4893 39.9895C63.52 39.7473 63.4612 39.5023 63.3238 39.3004C63.1865 39.0986 62.9801 38.9539 62.7435 38.8936Z" fill="url(#paint31_linear_266_395)"/>
<path d="M63.3741 34.9716C63.1107 34.9377 62.8446 35.0099 62.6345 35.1722C62.4243 35.3345 62.2872 35.5736 62.2533 35.837C62.2194 36.1004 62.2916 36.3665 62.4539 36.5767C62.6162 36.7869 62.8554 36.924 63.1188 36.9578C63.1621 36.9618 63.2055 36.9634 63.249 36.9627C63.5033 36.9627 63.748 36.8658 63.9333 36.6918C64.1186 36.5178 64.2307 36.2796 64.2466 36.0259C64.2625 35.7721 64.1812 35.5218 64.0191 35.326C63.857 35.1301 63.6263 35.0034 63.3741 34.9716Z" fill="url(#paint32_linear_266_395)"/>
<path d="M63.4938 30.8997C63.2292 30.9007 62.9758 31.0065 62.7891 31.1941C62.6024 31.3816 62.4978 31.6356 62.498 31.9002V32.0003C62.498 32.2658 62.6035 32.5204 62.7912 32.7081C62.9789 32.8958 63.2335 33.0013 63.499 33.0013C63.7644 33.0013 64.019 32.8958 64.2067 32.7081C64.3944 32.5204 64.4999 32.2658 64.4999 32.0003V31.8953C64.5001 31.7636 64.4741 31.6332 64.4235 31.5117C64.3728 31.3901 64.2986 31.2798 64.205 31.1872C64.1114 31.0946 64.0003 31.0215 63.8782 30.9721C63.7562 30.9228 63.6255 30.8982 63.4938 30.8997Z" fill="url(#paint33_linear_266_395)"/>
<path d="M60.0058 46.3467C59.8914 46.2815 59.7653 46.2395 59.6347 46.2231C59.5041 46.2067 59.3716 46.2163 59.2447 46.2512C59.1178 46.2861 58.999 46.3458 58.8952 46.4267C58.7914 46.5076 58.7045 46.6082 58.6397 46.7228C58.5748 46.8373 58.5332 46.9635 58.5172 47.0942C58.5012 47.2248 58.5111 47.3573 58.5464 47.4841C58.5817 47.611 58.6417 47.7295 58.723 47.8331C58.8042 47.9367 58.905 48.0232 59.0198 48.0878C59.1705 48.1742 59.3416 48.219 59.5153 48.2177C59.7362 48.2174 59.9507 48.144 60.1255 48.0089C60.3003 47.8739 60.4254 47.6848 60.4814 47.4711C60.5374 47.2575 60.5211 47.0313 60.4351 46.8279C60.349 46.6245 60.1981 46.4553 60.0058 46.3467Z" fill="url(#paint34_linear_266_395)"/>
<path d="M59.4701 17.6987C59.6423 17.6995 59.8115 17.6545 59.9606 17.5683C60.075 17.5041 60.1755 17.4178 60.2564 17.3144C60.3373 17.2111 60.3969 17.0928 60.4318 16.9663C60.4667 16.8398 60.4762 16.7076 60.4598 16.5775C60.4433 16.4473 60.4012 16.3216 60.3359 16.2078C60.2495 16.0541 60.1239 15.9259 59.972 15.8364C59.82 15.7468 59.6471 15.699 59.4708 15.6978C59.2944 15.6966 59.1209 15.742 58.9677 15.8295C58.8146 15.9169 58.6872 16.0433 58.5987 16.1958C58.5101 16.3483 58.4634 16.5216 58.4634 16.6979C58.4633 16.8743 58.5099 17.0476 58.5984 17.2001C58.6868 17.3527 58.8141 17.4792 58.9672 17.5667C59.1202 17.6543 59.2938 17.6998 59.4701 17.6987Z" fill="url(#paint35_linear_266_395)"/>
<path d="M61.617 42.7104C61.4951 42.6606 61.3645 42.6353 61.2327 42.636C61.1009 42.6367 60.9706 42.6635 60.8492 42.7147C60.7278 42.7659 60.6177 42.8406 60.5253 42.9344C60.4328 43.0283 60.3597 43.1395 60.3103 43.2616C60.2609 43.3838 60.2361 43.5144 60.2373 43.6462C60.2386 43.778 60.2658 43.9082 60.3174 44.0294C60.3691 44.1506 60.4442 44.2604 60.5384 44.3525C60.6326 44.4447 60.744 44.5173 60.8664 44.5663C60.984 44.6138 61.1099 44.6376 61.2368 44.6361C61.4361 44.6374 61.6313 44.579 61.7972 44.4684C61.963 44.3579 62.092 44.2002 62.1676 44.0157V44.0108C62.2171 43.8893 62.2422 43.7592 62.2414 43.628C62.2405 43.4968 62.2137 43.367 62.1626 43.2462C62.1114 43.1254 62.0369 43.0158 61.9433 42.9239C61.8496 42.8319 61.7388 42.7594 61.617 42.7104Z" fill="url(#paint36_linear_266_395)"/>
<path d="M22.1264 60.1834C22.0028 60.1376 21.8714 60.1167 21.7397 60.1218C21.608 60.127 21.4787 60.158 21.359 60.2132C21.2394 60.2684 21.1318 60.3467 21.0424 60.4435C20.953 60.5403 20.8837 60.6539 20.8382 60.7776C20.7928 60.9013 20.7723 61.0327 20.7777 61.1644C20.7832 61.296 20.8146 61.4253 20.8701 61.5448C20.9256 61.6643 21.0041 61.7717 21.1012 61.8608C21.1983 61.9499 21.312 62.019 21.4358 62.0641C21.5466 62.1039 21.6634 62.1242 21.7811 62.1242C22.0164 62.1246 22.2444 62.0421 22.4249 61.8912C22.6055 61.7402 22.727 61.5304 22.7683 61.2987C22.8095 61.067 22.7677 60.8282 22.6503 60.6242C22.5329 60.4202 22.3474 60.2641 22.1264 60.1834Z" fill="url(#paint37_linear_266_395)"/>
<path d="M15.3151 56.6366C15.0975 56.4857 14.8289 56.4272 14.5683 56.474C14.3076 56.5207 14.0761 56.6689 13.9245 56.886C13.7728 57.1031 13.7134 57.3714 13.7593 57.6323C13.8051 57.8931 13.9525 58.1251 14.169 58.2775C14.3383 58.3941 14.539 58.4568 14.7445 58.4573C14.9574 58.4571 15.1646 58.389 15.3361 58.263C15.5076 58.1369 15.6343 57.9594 15.698 57.7563C15.7616 57.5532 15.7588 57.3351 15.69 57.1338C15.6211 56.9324 15.4898 56.7582 15.3151 56.6366Z" fill="url(#paint38_linear_266_395)"/>
<path d="M3.97962 41.4999C3.9219 41.3243 3.81678 41.1682 3.67588 41.0486C3.53498 40.9291 3.36378 40.8508 3.18118 40.8224C2.99858 40.7941 2.8117 40.8167 2.64118 40.8879C2.47066 40.9591 2.32313 41.076 2.21489 41.2258C2.10664 41.3755 2.04191 41.5523 2.02782 41.7366C2.01373 41.9208 2.05085 42.1054 2.13506 42.2698C2.21928 42.4343 2.34732 42.5723 2.50504 42.6686C2.66276 42.7649 2.84403 42.8157 3.02881 42.8154C3.13592 42.8159 3.24239 42.7989 3.34403 42.7651C3.46893 42.7239 3.58447 42.6584 3.68404 42.5725C3.78362 42.4866 3.86526 42.3819 3.9243 42.2643C3.98334 42.1468 4.01862 42.0188 4.02811 41.8876C4.0376 41.7564 4.02112 41.6247 3.97962 41.4999Z" fill="url(#paint39_linear_266_395)"/>
<path d="M10.8912 54.3106C10.7587 54.4574 10.6726 54.6402 10.6439 54.8359C10.6152 55.0316 10.6451 55.2314 10.7299 55.4101C10.8146 55.5888 10.9505 55.7384 11.1202 55.84C11.2899 55.9416 11.4859 55.9906 11.6835 55.9808C11.881 55.9711 12.0713 55.903 12.2302 55.7853C12.3891 55.6675 12.5095 55.5053 12.5763 55.3191C12.643 55.1329 12.6532 54.9311 12.6053 54.7392C12.5575 54.5472 12.4539 54.3738 12.3075 54.2407C12.2103 54.1516 12.0963 54.0827 11.9723 54.0379C11.8482 53.9932 11.7165 53.9735 11.5848 53.98C11.4531 53.9865 11.3239 54.019 11.2049 54.0758C11.0858 54.1325 10.9792 54.2123 10.8912 54.3106Z" fill="url(#paint40_linear_266_395)"/>
<path d="M5.93643 48.1176C5.75664 48.2354 5.61965 48.4081 5.54576 48.61C5.47187 48.8119 5.46504 49.0323 5.52626 49.2383C5.58749 49.4444 5.71352 49.6253 5.88565 49.7541C6.05779 49.8829 6.26686 49.9528 6.48184 49.9534C6.63803 49.9542 6.79224 49.9184 6.93212 49.849C7.07201 49.7795 7.19369 49.6782 7.28742 49.5533C7.38115 49.4284 7.44432 49.2832 7.47189 49.1295C7.49945 48.9757 7.49064 48.8177 7.44616 48.668C7.40168 48.5182 7.32276 48.381 7.21573 48.2673C7.1087 48.1535 6.97652 48.0664 6.82978 48.0129C6.68304 47.9594 6.52581 47.941 6.37068 47.9592C6.21555 47.9774 6.06684 48.0316 5.93643 48.1176Z" fill="url(#paint41_linear_266_395)"/>
<path d="M8.21348 51.3691C8.05804 51.502 7.94709 51.6794 7.89556 51.8774C7.84403 52.0753 7.8544 52.2843 7.92527 52.4762C7.99615 52.6681 8.12412 52.8336 8.29196 52.9505C8.45979 53.0675 8.65943 53.1301 8.86398 53.1301C9.02527 53.1302 9.18418 53.0912 9.32717 53.0166C9.47016 52.9419 9.59299 52.8338 9.6852 52.7015C9.77741 52.5692 9.83627 52.4165 9.85676 52.2565C9.87724 52.0965 9.85876 51.934 9.80287 51.7827C9.74698 51.6313 9.65535 51.4958 9.53578 51.3875C9.41621 51.2793 9.27224 51.2015 9.11615 51.1609C8.96005 51.1203 8.79645 51.118 8.63928 51.1542C8.48211 51.1905 8.33603 51.2642 8.21348 51.3691Z" fill="url(#paint42_linear_266_395)"/>
<path d="M8.80439 12.9412C9.0401 12.9424 9.26871 12.8606 9.45013 12.7102C9.63154 12.5597 9.75416 12.3501 9.79648 12.1182C9.8388 11.8863 9.79811 11.647 9.68155 11.4421C9.565 11.2372 9.38001 11.08 9.15906 10.9979C8.93812 10.9158 8.69532 10.9141 8.47326 10.9932C8.25121 11.0722 8.06409 11.227 7.94474 11.4302C7.82539 11.6335 7.78143 11.8723 7.82057 12.1047C7.85971 12.3371 7.97946 12.5484 8.15879 12.7013C8.33873 12.8553 8.56755 12.9403 8.80439 12.9412Z" fill="url(#paint43_linear_266_395)"/>
<path d="M18.6079 58.6273C18.4913 58.5663 18.3638 58.5288 18.2326 58.5171C18.1015 58.5054 17.9693 58.5197 17.8437 58.5591C17.7181 58.5986 17.6015 58.6624 17.5006 58.7469C17.3996 58.8314 17.3164 58.935 17.2555 59.0518C17.1947 59.1685 17.1574 59.2961 17.1459 59.4273C17.1344 59.5584 17.1489 59.6905 17.1885 59.8161C17.2281 59.9416 17.2921 60.0581 17.3768 60.1589C17.4615 60.2597 17.5652 60.3429 17.682 60.4035C17.8234 60.4798 17.9818 60.5193 18.1424 60.5183C18.3661 60.5173 18.5831 60.4416 18.7589 60.3031C18.9346 60.1647 19.0591 59.9716 19.1126 59.7544C19.1661 59.5371 19.1454 59.3083 19.054 59.1041C18.9626 58.8999 18.8056 58.7321 18.6079 58.6273Z" fill="url(#paint44_linear_266_395)"/>
<path d="M33.4565 61.9991C33.1942 62.0081 32.9459 62.1199 32.7652 62.3102C32.5845 62.5006 32.4858 62.7544 32.4904 63.0168C32.495 63.2793 32.6025 63.5294 32.7898 63.7133C32.9771 63.8972 33.2292 64.0002 33.4917 64H33.5215C33.6529 63.9957 33.7821 63.9656 33.9019 63.9114C34.0216 63.8572 34.1295 63.7799 34.2194 63.684C34.3093 63.5881 34.3794 63.4754 34.4258 63.3524C34.4721 63.2294 34.4937 63.0984 34.4895 62.967C34.4852 62.8357 34.4551 62.7064 34.4009 62.5866C34.3467 62.4669 34.2694 62.359 34.1735 62.2691C34.0775 62.1792 33.9649 62.1091 33.8418 62.0628C33.7188 62.0164 33.5879 61.9948 33.4565 61.9991Z" fill="url(#paint45_linear_266_395)"/>
<path d="M29.6134 61.8789C29.4826 61.8663 29.3506 61.8796 29.225 61.9181C29.0994 61.9565 28.9826 62.0193 28.8812 62.1029C28.7799 62.1865 28.696 62.2893 28.6344 62.4053C28.5728 62.5214 28.5346 62.6484 28.5221 62.7792C28.5096 62.91 28.523 63.0419 28.5615 63.1676C28.6 63.2932 28.6629 63.4099 28.7466 63.5112C28.8302 63.6125 28.933 63.6964 29.0491 63.7579C29.1652 63.8195 29.2922 63.8576 29.423 63.87C29.4545 63.8739 29.4863 63.8756 29.5181 63.8749C29.7751 63.875 30.0224 63.776 30.2085 63.5987C30.3946 63.4213 30.5052 63.1791 30.5175 62.9223C30.5297 62.6655 30.4427 62.4139 30.2743 62.2196C30.106 62.0253 29.8693 61.9033 29.6134 61.8789Z" fill="url(#paint46_linear_266_395)"/>
<path d="M25.8145 61.2736C25.5558 61.2152 25.2844 61.262 25.0602 61.4036C24.836 61.5453 24.6772 61.7702 24.6188 62.0289C24.5604 62.2877 24.6072 62.559 24.7488 62.7833C24.8905 63.0075 25.1154 63.1663 25.3742 63.2247C25.4461 63.2428 25.5202 63.2512 25.5943 63.2496C25.8405 63.2496 26.078 63.1589 26.2615 62.9948C26.4449 62.8307 26.5614 62.6047 26.5887 62.3601C26.6159 62.1155 26.552 61.8694 26.4092 61.6689C26.2663 61.4685 26.0546 61.3277 25.8145 61.2736Z" fill="url(#paint47_linear_266_395)"/>
<path d="M5.42613 45.0611C5.3394 44.8843 5.20224 44.7372 5.03198 44.6383C4.86171 44.5394 4.66597 44.4931 4.46944 44.5053C4.27291 44.5176 4.08441 44.5877 3.92772 44.707C3.77104 44.8263 3.65318 44.9892 3.58904 45.1754C3.52489 45.3616 3.51733 45.5626 3.5673 45.753C3.61727 45.9435 3.72253 46.1149 3.86981 46.2456C4.01709 46.3763 4.19978 46.4604 4.39483 46.4874C4.58988 46.5144 4.78855 46.483 4.96577 46.3971C5.20345 46.2804 5.38528 46.0744 5.47154 45.8241C5.5578 45.5737 5.54148 45.2994 5.42613 45.0611Z" fill="url(#paint48_linear_266_395)"/>
<path d="M35.4407 19.2434H33.5044C33.6372 21.3098 34.1581 22.5615 34.4726 22.9238C34.7869 22.5615 35.3079 21.3098 35.4407 19.2434Z" fill="url(#paint49_linear_266_395)"/>
<path d="M32.1142 22.6527C31.7549 21.5497 31.5483 20.4026 31.5003 19.2434H29.5688C29.7175 19.9634 30.0225 20.642 30.4624 21.2312C30.9022 21.8203 31.4661 22.3056 32.1142 22.6527Z" fill="url(#paint50_linear_266_395)"/>
<path d="M32.1142 13.8333C31.4661 14.1804 30.9022 14.6657 30.4624 15.2548C30.0225 15.844 29.7175 16.5226 29.5688 17.2426H31.5003C31.5483 16.0834 31.7549 14.9363 32.1142 13.8333Z" fill="url(#paint51_linear_266_395)"/>
<path d="M34.4726 13.562C34.1581 13.9244 33.6372 15.1761 33.5044 17.2424H35.4407C35.3079 15.1761 34.787 13.9244 34.4726 13.562Z" fill="url(#paint52_linear_266_395)"/>
<path d="M39.3764 17.2426C39.2278 16.5225 38.9227 15.844 38.4829 15.2548C38.0431 14.6657 37.4792 14.1804 36.8311 13.8333C37.1904 14.9363 37.3969 16.0834 37.4449 17.2426H39.3764Z" fill="url(#paint53_linear_266_395)"/>
<path d="M39.3764 19.2434H37.4449C37.3969 20.4025 37.1904 21.5497 36.8311 22.6527C37.4792 22.3056 38.0431 21.8203 38.4829 21.2312C38.9227 20.642 39.2278 19.9634 39.3764 19.2434Z" fill="url(#paint54_linear_266_395)"/>
<path d="M52.7845 43.6291L55.3379 37.9302C55.4524 37.6955 55.5052 37.4356 55.4915 37.1748C55.4778 36.9141 55.3979 36.6611 55.2594 36.4398C55.1105 36.2195 54.908 36.0408 54.671 35.9203C54.4339 35.7998 54.1702 35.7415 53.9044 35.751H49.9047C49.4976 35.7601 49.0966 35.8517 48.7259 36.0202C48.3449 36.1887 47.8208 36.5795 46.576 38.2888L45.7884 39.3698H44.9654C44.9731 39.4776 44.9822 39.585 44.9822 39.6947V41.3708H46.2977C46.4555 41.3708 46.611 41.3335 46.7516 41.2619C46.8922 41.1904 47.0139 41.0865 47.1068 40.9589L48.1942 39.4661C48.5765 38.8776 49.0261 38.3356 49.5338 37.8511C49.6504 37.7959 49.7761 37.7623 49.9047 37.7519H53.2244L50.9574 42.8119C50.7869 43.1329 50.5483 43.4129 50.2583 43.6321L42.3896 48.8713C42.0754 49.0491 41.7253 49.1543 41.3652 49.1791H26.2313C25.9853 49.1789 25.7478 49.2696 25.5644 49.4336L23.7967 51.0124C23.7763 51.0306 23.7611 51.052 23.7426 51.0714L15.8383 42.7675L21.1539 38.0587C21.3993 37.8826 21.6879 37.7766 21.9889 37.7519H30.0289C30.4778 37.7684 30.922 37.8495 31.3477 37.9927L33.2132 38.7001C33.8664 38.9294 34.5514 39.0546 35.2434 39.0714H40.2409C40.4211 39.0577 40.5994 39.1153 40.7374 39.2319C40.8754 39.3486 40.9621 39.5148 40.9786 39.6947V42.1309C40.9621 42.3108 40.8754 42.477 40.7374 42.5936C40.5994 42.7103 40.4211 42.7679 40.2409 42.7542H30.2462C30.1146 42.754 29.9843 42.7796 29.8626 42.8298C29.741 42.8799 29.6304 42.9536 29.5373 43.0465C29.4441 43.1394 29.3702 43.2498 29.3198 43.3713C29.2694 43.4929 29.2435 43.6231 29.2435 43.7547C29.2435 43.8863 29.2694 44.0166 29.3198 44.1381C29.3702 44.2596 29.4441 44.37 29.5373 44.4629C29.6304 44.5559 29.741 44.6295 29.8626 44.6796C29.9843 44.7298 30.1146 44.7555 30.2462 44.7552H40.2409C40.9518 44.7693 41.6394 44.501 42.1529 44.0091C42.6665 43.5172 42.964 42.8418 42.9804 42.1309V39.6947C42.964 38.9838 42.6665 38.3084 42.1529 37.8165C41.6394 37.3246 40.9518 37.0563 40.2409 37.0705H35.2434C34.7943 37.054 34.35 36.9729 33.9241 36.8296L32.0586 36.1222C31.4057 35.893 30.7208 35.7677 30.0289 35.751H21.9889C21.1983 35.776 20.4379 36.0608 19.8255 36.5614L14.4045 41.3635C13.9233 40.9792 13.3284 40.765 12.7126 40.7545C12.0969 40.7439 11.4949 40.9376 11.0009 41.3053L9.80642 42.3092C9.70589 42.3938 9.62302 42.4974 9.56253 42.6141C9.50203 42.7307 9.46511 42.8581 9.45387 42.9891C9.44262 43.12 9.45727 43.2518 9.49698 43.3771C9.5367 43.5023 9.60069 43.6186 9.68531 43.7191C9.76994 43.8196 9.87353 43.9025 9.99018 43.963C10.1068 44.0235 10.2343 44.0604 10.3652 44.0716C10.4961 44.0829 10.628 44.0682 10.7532 44.0285C10.8785 43.9888 10.9947 43.9248 11.0952 43.8402L12.2889 42.8373C12.497 42.7577 12.7254 42.7486 12.9391 42.8114C13.1528 42.8741 13.3401 43.0052 13.4721 43.1846L23.1802 53.3837C23.3619 53.5824 23.462 53.8423 23.4606 54.1116C23.4592 54.3808 23.3563 54.6397 23.1726 54.8365L21.4921 56.5658C21.3072 56.7562 21.2056 57.0123 21.2095 57.2776C21.2134 57.543 21.3225 57.796 21.5129 57.9808C21.7034 58.1657 21.9594 58.2674 22.2248 58.2635C22.4902 58.2596 22.7431 58.1504 22.928 57.96L24.6087 56.2307C25.0668 55.7491 25.3566 55.1321 25.4349 54.472C25.5132 53.812 25.3757 53.1443 25.043 52.5689C25.0733 52.549 25.1025 52.5275 25.1304 52.5043L26.6132 51.18H41.3652C42.1202 51.1559 42.8557 50.9343 43.4982 50.5371L51.3682 45.2969C51.9726 44.8684 52.4596 44.2949 52.7845 43.6291Z" fill="url(#paint55_linear_266_395)"/>
<path d="M21.46 9.73999V33.785H21.47C21.6191 33.765 21.7695 33.755 21.92 33.755C21.94 33.755 21.965 33.75 21.99 33.75H27.215C26.9497 33.75 26.6954 33.6446 26.5079 33.4571C26.3203 33.2696 26.215 33.0152 26.215 32.75C26.215 32.4848 26.3203 32.2304 26.5079 32.0429C26.6954 31.8553 26.9497 31.75 27.215 31.75H41.73C41.9952 31.75 42.2495 31.8553 42.4371 32.0429C42.6246 32.2304 42.73 32.4848 42.73 32.75C42.73 33.0152 42.6246 33.2696 42.4371 33.4571C42.2495 33.6446 41.9952 33.75 41.73 33.75H30.03C30.9648 33.7667 31.8905 33.9374 32.77 34.255L34.635 34.96C34.8341 35.0168 35.0385 35.0537 35.245 35.07H40.24C41.0812 35.0663 41.9083 35.2856 42.6372 35.7054C43.3662 36.1252 43.9709 36.7306 44.39 37.46C44.5119 37.4204 44.6375 37.3936 44.765 37.38L44.96 37.11C46.03 35.64 46.75 34.87 47.485 34.42V9.73999C47.4841 8.94376 47.167 8.18047 46.6035 7.61791C46.04 7.05536 45.2762 6.73958 44.48 6.73999H24.465C23.669 6.74043 22.9057 7.05648 22.3424 7.61885C21.779 8.18122 21.4617 8.94402 21.46 9.73999ZM38.975 29.75H29.97C29.7041 29.75 29.4491 29.6444 29.2611 29.4564C29.0731 29.2684 28.9675 29.0134 28.9675 28.7475C28.9675 28.4816 29.0731 28.2266 29.2611 28.0386C29.4491 27.8506 29.7041 27.745 29.97 27.745H38.975C39.2408 27.745 39.4958 27.8506 39.6838 28.0386C39.8718 28.2266 39.9775 28.4816 39.9775 28.7475C39.9775 29.0134 39.8718 29.2684 39.6838 29.4564C39.4958 29.6444 39.2408 29.75 38.975 29.75ZM34.475 11.24C35.8595 11.2415 37.2125 11.6534 38.363 12.4236C39.5135 13.1938 40.4099 14.2878 40.9388 15.5674C41.4678 16.8469 41.6055 18.2545 41.3347 19.6123C41.0638 20.9701 40.3966 22.2171 39.4172 23.1958C38.4378 24.1744 37.1903 24.8408 35.8324 25.1107C34.4744 25.3805 33.0669 25.2418 31.7877 24.712C30.5086 24.1821 29.4152 23.285 28.6458 22.1339C27.8764 20.9828 27.4655 19.6295 27.465 18.245C27.4671 16.3869 28.2065 14.6057 29.5208 13.2923C30.8351 11.9789 32.6169 11.2408 34.475 11.24Z" fill="url(#paint56_linear_266_395)"/>
</g>
<defs>
<linearGradient id="paint0_linear_266_395" x1="22.6753" y1="1.92773" x2="20.333" y2="2.53785" gradientUnits="userSpaceOnUse">
<stop stop-color="#FFCC00"/>
<stop offset="1" stop-color="#F37124"/>
</linearGradient>
<linearGradient id="paint1_linear_266_395" x1="19.0569" y1="3.52881" x2="16.697" y2="4.14351" gradientUnits="userSpaceOnUse">
<stop stop-color="#FFCC00"/>
<stop offset="1" stop-color="#F37124"/>
</linearGradient>
<linearGradient id="paint2_linear_266_395" x1="12.5662" y1="8.08105" x2="10.2028" y2="8.69787" gradientUnits="userSpaceOnUse">
<stop stop-color="#FFCC00"/>
<stop offset="1" stop-color="#F37124"/>
</linearGradient>
<linearGradient id="paint3_linear_266_395" x1="2.51446" y1="33.033" x2="0.147839" y2="33.65" gradientUnits="userSpaceOnUse">
<stop stop-color="#FFCC00"/>
<stop offset="1" stop-color="#F37124"/>
</linearGradient>
<linearGradient id="paint4_linear_266_395" x1="2.44718" y1="29.1157" x2="0.145938" y2="29.7153" gradientUnits="userSpaceOnUse">
<stop stop-color="#FFCC00"/>
<stop offset="1" stop-color="#F37124"/>
</linearGradient>
<linearGradient id="paint5_linear_266_395" x1="3.99223" y1="21.2815" x2="1.63774" y2="21.8948" gradientUnits="userSpaceOnUse">
<stop stop-color="#FFCC00"/>
<stop offset="1" stop-color="#F37124"/>
</linearGradient>
<linearGradient id="paint6_linear_266_395" x1="15.652" y1="5.62378" x2="13.3204" y2="6.23109" gradientUnits="userSpaceOnUse">
<stop stop-color="#FFCC00"/>
<stop offset="1" stop-color="#F37124"/>
</linearGradient>
<linearGradient id="paint7_linear_266_395" x1="7.43108" y1="14.1245" x2="5.07246" y2="14.7384" gradientUnits="userSpaceOnUse">
<stop stop-color="#FFCC00"/>
<stop offset="1" stop-color="#F37124"/>
</linearGradient>
<linearGradient id="paint8_linear_266_395" x1="5.46443" y1="17.6069" x2="3.12433" y2="18.2165" gradientUnits="userSpaceOnUse">
<stop stop-color="#FFCC00"/>
<stop offset="1" stop-color="#F37124"/>
</linearGradient>
<linearGradient id="paint9_linear_266_395" x1="2.99756" y1="25.124" x2="0.637415" y2="25.7389" gradientUnits="userSpaceOnUse">
<stop stop-color="#FFCC00"/>
<stop offset="1" stop-color="#F37124"/>
</linearGradient>
<linearGradient id="paint10_linear_266_395" x1="26.5021" y1="0.761231" x2="24.129" y2="1.37929" gradientUnits="userSpaceOnUse">
<stop stop-color="#FFCC00"/>
<stop offset="1" stop-color="#F37124"/>
</linearGradient>
<linearGradient id="paint11_linear_266_395" x1="49.4928" y1="4.42627" x2="47.1238" y2="5.04334" gradientUnits="userSpaceOnUse">
<stop stop-color="#FFCC00"/>
<stop offset="1" stop-color="#F37124"/>
</linearGradient>
<linearGradient id="paint12_linear_266_395" x1="52.7523" y1="6.69727" x2="50.3903" y2="7.31211" gradientUnits="userSpaceOnUse">
<stop stop-color="#FFCC00"/>
<stop offset="1" stop-color="#F37124"/>
</linearGradient>
<linearGradient id="paint13_linear_266_395" x1="55.7089" y1="9.35962" x2="53.3407" y2="9.97646" gradientUnits="userSpaceOnUse">
<stop stop-color="#FFCC00"/>
<stop offset="1" stop-color="#F37124"/>
</linearGradient>
<linearGradient id="paint14_linear_266_395" x1="63.4618" y1="23.0391" x2="61.1039" y2="23.653" gradientUnits="userSpaceOnUse">
<stop stop-color="#FFCC00"/>
<stop offset="1" stop-color="#F37124"/>
</linearGradient>
<linearGradient id="paint15_linear_266_395" x1="64.2337" y1="26.9346" x2="61.8737" y2="27.5492" gradientUnits="userSpaceOnUse">
<stop stop-color="#FFCC00"/>
<stop offset="1" stop-color="#F37124"/>
</linearGradient>
<linearGradient id="paint16_linear_266_395" x1="62.2019" y1="19.2695" x2="59.8403" y2="19.8847" gradientUnits="userSpaceOnUse">
<stop stop-color="#FFCC00"/>
<stop offset="1" stop-color="#F37124"/>
</linearGradient>
<linearGradient id="paint17_linear_266_395" x1="30.4202" y1="0.135742" x2="28.056" y2="0.752312" gradientUnits="userSpaceOnUse">
<stop stop-color="#FFCC00"/>
<stop offset="1" stop-color="#F37124"/>
</linearGradient>
<linearGradient id="paint18_linear_266_395" x1="34.7986" y1="-0.401367" x2="31.943" y2="0.342448" gradientUnits="userSpaceOnUse">
<stop stop-color="#FFCC00"/>
<stop offset="1" stop-color="#F37124"/>
</linearGradient>
<linearGradient id="paint19_linear_266_395" x1="45.965" y1="2.59497" x2="43.5954" y2="3.2122" gradientUnits="userSpaceOnUse">
<stop stop-color="#FFCC00"/>
<stop offset="1" stop-color="#F37124"/>
</linearGradient>
<linearGradient id="paint20_linear_266_395" x1="42.2245" y1="1.23511" x2="39.8615" y2="1.85056" gradientUnits="userSpaceOnUse">
<stop stop-color="#FFCC00"/>
<stop offset="1" stop-color="#F37124"/>
</linearGradient>
<linearGradient id="paint21_linear_266_395" x1="38.3153" y1="0.39624" x2="35.9893" y2="1.00217" gradientUnits="userSpaceOnUse">
<stop stop-color="#FFCC00"/>
<stop offset="1" stop-color="#F37124"/>
</linearGradient>
<linearGradient id="paint22_linear_266_395" x1="3.018" y1="36.9792" x2="0.658406" y2="37.5938" gradientUnits="userSpaceOnUse">
<stop stop-color="#FFCC00"/>
<stop offset="1" stop-color="#F37124"/>
</linearGradient>
<linearGradient id="paint23_linear_266_395" x1="58.343" y1="49.5474" x2="55.9825" y2="50.1633" gradientUnits="userSpaceOnUse">
<stop stop-color="#FFCC00"/>
<stop offset="1" stop-color="#F37124"/>
</linearGradient>
<linearGradient id="paint24_linear_266_395" x1="58.2893" y1="12.3777" x2="55.9256" y2="12.9926" gradientUnits="userSpaceOnUse">
<stop stop-color="#FFCC00"/>
<stop offset="1" stop-color="#F37124"/>
</linearGradient>
<linearGradient id="paint25_linear_266_395" x1="38.4505" y1="61.6152" x2="36.0852" y2="62.231" gradientUnits="userSpaceOnUse">
<stop stop-color="#FFCC00"/>
<stop offset="1" stop-color="#F37124"/>
</linearGradient>
<linearGradient id="paint26_linear_266_395" x1="55.7657" y1="52.5679" x2="53.4029" y2="53.1828" gradientUnits="userSpaceOnUse">
<stop stop-color="#FFCC00"/>
<stop offset="1" stop-color="#F37124"/>
</linearGradient>
<linearGradient id="paint27_linear_266_395" x1="42.3212" y1="60.7329" x2="39.9603" y2="61.3474" gradientUnits="userSpaceOnUse">
<stop stop-color="#FFCC00"/>
<stop offset="1" stop-color="#F37124"/>
</linearGradient>
<linearGradient id="paint28_linear_266_395" x1="49.5719" y1="57.5181" x2="47.2084" y2="58.1343" gradientUnits="userSpaceOnUse">
<stop stop-color="#FFCC00"/>
<stop offset="1" stop-color="#F37124"/>
</linearGradient>
<linearGradient id="paint29_linear_266_395" x1="46.0488" y1="59.3574" x2="43.6874" y2="59.9723" gradientUnits="userSpaceOnUse">
<stop stop-color="#FFCC00"/>
<stop offset="1" stop-color="#F37124"/>
</linearGradient>
<linearGradient id="paint30_linear_266_395" x1="52.8274" y1="55.2417" x2="50.4623" y2="55.8589" gradientUnits="userSpaceOnUse">
<stop stop-color="#FFCC00"/>
<stop offset="1" stop-color="#F37124"/>
</linearGradient>
<linearGradient id="paint31_linear_266_395" x1="63.4972" y1="38.863" x2="61.1281" y2="39.4822" gradientUnits="userSpaceOnUse">
<stop stop-color="#FFCC00"/>
<stop offset="1" stop-color="#F37124"/>
</linearGradient>
<linearGradient id="paint32_linear_266_395" x1="64.2486" y1="34.9634" x2="61.8843" y2="35.5804" gradientUnits="userSpaceOnUse">
<stop stop-color="#FFCC00"/>
<stop offset="1" stop-color="#F37124"/>
</linearGradient>
<linearGradient id="paint33_linear_266_395" x1="64.4999" y1="30.8997" x2="62.1229" y2="31.4894" gradientUnits="userSpaceOnUse">
<stop stop-color="#FFCC00"/>
<stop offset="1" stop-color="#F37124"/>
</linearGradient>
<linearGradient id="paint34_linear_266_395" x1="60.5141" y1="46.2153" x2="58.1485" y2="46.8321" gradientUnits="userSpaceOnUse">
<stop stop-color="#FFCC00"/>
<stop offset="1" stop-color="#F37124"/>
</linearGradient>
<linearGradient id="paint35_linear_266_395" x1="60.4676" y1="15.6978" x2="58.1023" y2="16.3148" gradientUnits="userSpaceOnUse">
<stop stop-color="#FFCC00"/>
<stop offset="1" stop-color="#F37124"/>
</linearGradient>
<linearGradient id="paint36_linear_266_395" x1="62.2414" y1="42.636" x2="59.8764" y2="43.2532" gradientUnits="userSpaceOnUse">
<stop stop-color="#FFCC00"/>
<stop offset="1" stop-color="#F37124"/>
</linearGradient>
<linearGradient id="paint37_linear_266_395" x1="22.7837" y1="60.1211" x2="20.4154" y2="60.7391" gradientUnits="userSpaceOnUse">
<stop stop-color="#FFCC00"/>
<stop offset="1" stop-color="#F37124"/>
</linearGradient>
<linearGradient id="paint38_linear_266_395" x1="15.7437" y1="56.4583" x2="13.3835" y2="57.0732" gradientUnits="userSpaceOnUse">
<stop stop-color="#FFCC00"/>
<stop offset="1" stop-color="#F37124"/>
</linearGradient>
<linearGradient id="paint39_linear_266_395" x1="4.03072" y1="40.8105" x2="1.66322" y2="41.4275" gradientUnits="userSpaceOnUse">
<stop stop-color="#FFCC00"/>
<stop offset="1" stop-color="#F37124"/>
</linearGradient>
<linearGradient id="paint40_linear_266_395" x1="12.635" y1="53.9788" x2="10.272" y2="54.5938" gradientUnits="userSpaceOnUse">
<stop stop-color="#FFCC00"/>
<stop offset="1" stop-color="#F37124"/>
</linearGradient>
<linearGradient id="paint41_linear_266_395" x1="7.48759" y1="47.9524" x2="5.12385" y2="48.5686" gradientUnits="userSpaceOnUse">
<stop stop-color="#FFCC00"/>
<stop offset="1" stop-color="#F37124"/>
</linearGradient>
<linearGradient id="paint42_linear_266_395" x1="9.86486" y1="51.1287" x2="7.50224" y2="51.7441" gradientUnits="userSpaceOnUse">
<stop stop-color="#FFCC00"/>
<stop offset="1" stop-color="#F37124"/>
</linearGradient>
<linearGradient id="paint43_linear_266_395" x1="9.81278" y1="10.9351" x2="7.44476" y2="11.5519" gradientUnits="userSpaceOnUse">
<stop stop-color="#FFCC00"/>
<stop offset="1" stop-color="#F37124"/>
</linearGradient>
<linearGradient id="paint44_linear_266_395" x1="19.1417" y1="58.5132" x2="16.7806" y2="59.1265" gradientUnits="userSpaceOnUse">
<stop stop-color="#FFCC00"/>
<stop offset="1" stop-color="#F37124"/>
</linearGradient>
<linearGradient id="paint45_linear_266_395" x1="34.49" y1="61.9985" x2="32.1292" y2="62.6129" gradientUnits="userSpaceOnUse">
<stop stop-color="#FFCC00"/>
<stop offset="1" stop-color="#F37124"/>
</linearGradient>
<linearGradient id="paint46_linear_266_395" x1="30.5186" y1="61.8743" x2="28.1567" y2="62.4896" gradientUnits="userSpaceOnUse">
<stop stop-color="#FFCC00"/>
<stop offset="1" stop-color="#F37124"/>
</linearGradient>
<linearGradient id="paint47_linear_266_395" x1="26.5948" y1="61.249" x2="24.2333" y2="61.8641" gradientUnits="userSpaceOnUse">
<stop stop-color="#FFCC00"/>
<stop offset="1" stop-color="#F37124"/>
</linearGradient>
<linearGradient id="paint48_linear_266_395" x1="5.52621" y1="44.5034" x2="3.17514" y2="45.1152" gradientUnits="userSpaceOnUse">
<stop stop-color="#FFCC00"/>
<stop offset="1" stop-color="#F37124"/>
</linearGradient>
<linearGradient id="paint49_linear_266_395" x1="35.4407" y1="19.2434" x2="33.045" y2="19.5717" gradientUnits="userSpaceOnUse">
<stop stop-color="#FFCC00"/>
<stop offset="1" stop-color="#F37124"/>
</linearGradient>
<linearGradient id="paint50_linear_266_395" x1="32.1142" y1="19.2434" x2="29.0228" y2="19.8446" gradientUnits="userSpaceOnUse">
<stop stop-color="#FFCC00"/>
<stop offset="1" stop-color="#F37124"/>
</linearGradient>
<linearGradient id="paint51_linear_266_395" x1="32.1142" y1="13.8333" x2="29.0228" y2="14.4344" gradientUnits="userSpaceOnUse">
<stop stop-color="#FFCC00"/>
<stop offset="1" stop-color="#F37124"/>
</linearGradient>
<linearGradient id="paint52_linear_266_395" x1="35.4407" y1="13.562" x2="33.045" y2="13.8903" gradientUnits="userSpaceOnUse">
<stop stop-color="#FFCC00"/>
<stop offset="1" stop-color="#F37124"/>
</linearGradient>
<linearGradient id="paint53_linear_266_395" x1="39.3764" y1="13.8333" x2="36.285" y2="14.4344" gradientUnits="userSpaceOnUse">
<stop stop-color="#FFCC00"/>
<stop offset="1" stop-color="#F37124"/>
</linearGradient>
<linearGradient id="paint54_linear_266_395" x1="39.3764" y1="19.2434" x2="36.285" y2="19.8446" gradientUnits="userSpaceOnUse">
<stop stop-color="#FFCC00"/>
<stop offset="1" stop-color="#F37124"/>
</linearGradient>
<linearGradient id="paint55_linear_266_395" x1="55.4936" y1="35.75" x2="10.2859" y2="59.8324" gradientUnits="userSpaceOnUse">
<stop stop-color="#FFCC00"/>
<stop offset="1" stop-color="#F37124"/>
</linearGradient>
<linearGradient id="paint56_linear_266_395" x1="47.485" y1="6.73999" x2="16.2043" y2="13.6426" gradientUnits="userSpaceOnUse">
<stop stop-color="#FFCC00"/>
<stop offset="1" stop-color="#F37124"/>
</linearGradient>
<clipPath id="clip0_266_395">
<rect width="64" height="64" fill="white" transform="translate(0.5)"/>
</clipPath>
</defs>
</svg>
