<svg width="24" height="24" viewBox="0 0 24 24" fill="none" xmlns="http://www.w3.org/2000/svg">
<circle cx="12" cy="12" r="11.58" stroke="#F37124" stroke-width="0.84"/>
<path d="M11.9032 6.73828C9.21767 6.73828 7.04248 8.91347 7.04248 11.599C7.04248 12.6684 7.38273 13.6527 7.96602 14.4547L7.29767 16.2168L9.22982 15.6578C9.99539 16.1682 10.9189 16.4598 11.9032 16.4598C14.5888 16.4598 16.764 14.2846 16.764 11.599C16.764 8.91347 14.5888 6.73828 11.9032 6.73828ZM14.4916 13.6163L13.9691 14.1266C13.4222 14.6735 11.9762 14.078 10.7002 12.7899C9.42425 11.514 8.85311 10.0679 9.36349 9.53322L9.88602 9.01069C10.0805 8.81626 10.4086 8.81626 10.6151 9.01069L11.3807 9.77626C11.648 10.0436 11.5387 10.5054 11.1863 10.6147C10.9432 10.6998 10.7731 10.9671 10.8582 11.2102C10.9918 11.7813 11.7331 12.4861 12.2799 12.6198C12.523 12.6806 12.8025 12.5347 12.8754 12.2917C12.9848 11.9393 13.4465 11.8299 13.7139 12.0973L14.4794 12.8628C14.6739 13.0694 14.6739 13.3975 14.4916 13.6163Z" fill="#F37124"/>
</svg>
