<svg width="123" height="48" viewBox="0 0 123 48" fill="none" xmlns="http://www.w3.org/2000/svg">
<path d="M118.973 18.8665C120.832 19.0591 122.29 19.2309 122.29 19.2309L119.015 15.6169C119.03 15.2615 119.047 14.9238 119.071 14.6068C119.219 12.8324 118.101 11.221 118.146 14.6572L107.653 3.08073L79.2441 0L88.838 10.9692C95.1098 1.10788 107.653 11.0314 107.653 11.0314C99.4132 7.14789 95.3551 7.2723 92.1572 9.49102C88.7198 12.2933 85.8263 17.4624 91.2705 19.9003C97.1344 22.7796 104.899 25.8159 111.221 23.1736L111.283 18.4281C111.898 18.2237 115.211 18.4903 118.045 18.7717C118.229 24.5244 116.967 28.3546 116.94 32.9312C116.94 32.9312 119.236 34.3294 120.3 32.9312C119.807 27.1667 118.864 24.9539 118.973 18.8665ZM109.45 22.0272C109.125 24.8858 88.8262 19.5686 89.9405 16.9144C90.2656 14.0558 110.568 19.376 109.45 22.0272Z" fill="#F37124"/>
<path d="M0.53958 44.6233H0.214463L0.146484 43.1777H0.607559L0.53958 44.6233ZM1.75138 44.6233H1.42922L1.36124 43.1777H1.82231L1.75138 44.6233Z" fill="white"/>
<path d="M2.84668 43.293H3.3048V47.8904H2.84668V43.293Z" fill="white"/>
<path d="M4.66799 44.4902H5.10542V45.1005C5.27981 44.8664 5.47192 44.6917 5.68472 44.5761C5.89753 44.4606 6.12806 44.4014 6.37634 44.4014C6.63052 44.4014 6.85514 44.4665 7.05021 44.5939C7.24528 44.7243 7.39306 44.8961 7.48469 45.1153C7.57927 45.3345 7.6236 45.6751 7.6236 46.1372V47.8879H7.18617V46.2676C7.18617 45.8766 7.16844 45.6129 7.13888 45.4826C7.08864 45.2575 6.9911 45.0886 6.84923 44.976C6.70441 44.8635 6.5182 44.8072 6.28767 44.8072C6.02462 44.8072 5.78817 44.8961 5.57832 45.0708C5.36847 45.2456 5.23251 45.4618 5.16454 45.7196C5.12316 45.8884 5.10247 46.1965 5.10247 46.6438V47.8909H4.66504V44.4902H4.66799Z" fill="white"/>
<path d="M8.94339 44.4902H9.38081V45.1005C9.5552 44.8664 9.74731 44.6917 9.96011 44.5761C10.1729 44.4606 10.4035 44.4014 10.6517 44.4014C10.9059 44.4014 11.1305 44.4665 11.3256 44.5939C11.5207 44.7243 11.6685 44.8961 11.7601 45.1153C11.8547 45.3345 11.899 45.6751 11.899 46.1372V47.8879H11.4616V46.2676C11.4616 45.8766 11.4438 45.6129 11.4143 45.4826C11.364 45.2575 11.2665 45.0886 11.1246 44.976C10.9798 44.8635 10.7936 44.8072 10.5631 44.8072C10.3 44.8072 10.0636 44.8961 9.85371 45.0708C9.64386 45.2456 9.50791 45.4618 9.43993 45.7196C9.39855 45.8884 9.37786 46.1965 9.37786 46.6438V47.8909H8.94043V44.4902H8.94339Z" fill="white"/>
<path d="M14.8261 44.4014C15.3492 44.4014 15.7808 44.591 16.1266 44.9701C16.4399 45.3167 16.5936 45.7255 16.5936 46.1995C16.5936 46.6734 16.428 47.0911 16.1 47.4436C15.7689 47.7991 15.3463 47.9768 14.8261 47.9768C14.3059 47.9768 13.8803 47.7991 13.5493 47.4436C13.2182 47.0881 13.0527 46.6734 13.0527 46.1995C13.0527 45.7285 13.2094 45.3197 13.5197 44.976C13.8685 44.5939 14.303 44.4014 14.8261 44.4014ZM14.8261 44.8309C14.4626 44.8309 14.1522 44.9642 13.8892 45.2338C13.6291 45.5033 13.499 45.8262 13.499 46.2083C13.499 46.4542 13.5581 46.6823 13.6764 46.8956C13.7946 47.1089 13.9572 47.2718 14.1581 47.3873C14.3591 47.5028 14.5837 47.5621 14.8231 47.5621C15.0655 47.5621 15.2872 47.5028 15.4882 47.3873C15.6891 47.2718 15.8517 47.1089 15.9699 46.8956C16.0881 46.6823 16.1473 46.4542 16.1473 46.2083C16.1473 45.8262 16.0172 45.5033 15.7542 45.2338C15.497 44.9642 15.1867 44.8309 14.8261 44.8309Z" fill="white"/>
<path d="M17.4648 44.4902H17.9289L19.0668 46.9696L20.1929 44.4902H20.6599L19.1082 47.8909H19.0284L17.4648 44.4902Z" fill="white"/>
<path d="M25.0905 44.4902V47.8909H24.659V47.3073C24.4758 47.5295 24.2718 47.6983 24.0443 47.8109C23.8167 47.9234 23.5684 47.9797 23.2965 47.9797C22.8177 47.9797 22.4069 47.8049 22.067 47.4554C21.7271 47.1059 21.5586 46.6823 21.5586 46.1816C21.5586 45.6929 21.73 45.2722 22.0729 44.9256C22.4157 44.5791 22.8295 44.4043 23.3113 44.4043C23.5891 44.4043 23.8403 44.4635 24.0679 44.582C24.2925 44.7005 24.4906 44.8783 24.662 45.1152V44.4902H25.0905ZM23.3467 44.8249C23.1044 44.8249 22.8797 44.8842 22.6729 45.0056C22.466 45.1241 22.3034 45.293 22.1822 45.5092C22.061 45.7255 21.999 45.9535 21.999 46.1965C21.999 46.4364 22.061 46.6645 22.1822 46.8837C22.3034 47.1029 22.4689 47.2717 22.6758 47.3932C22.8827 47.5147 23.1044 47.5769 23.3408 47.5769C23.5802 47.5769 23.8049 47.5176 24.0206 47.3962C24.2334 47.2747 24.3989 47.1118 24.5142 46.9074C24.6295 46.7 24.6886 46.469 24.6886 46.2113C24.6886 45.8173 24.5585 45.4885 24.3014 45.2248C24.0413 44.9553 23.7221 44.8249 23.3467 44.8249Z" fill="white"/>
<path d="M26.8314 43.2285H27.2688V44.4904H27.9604V44.8696H27.2688V47.8911H26.8314V44.8696H26.2373V44.4904H26.8314V43.2285Z" fill="white"/>
<path d="M31.8576 46.7622L32.2241 46.9548C32.1029 47.1918 31.964 47.3843 31.8044 47.5295C31.6477 47.6746 31.4674 47.7872 31.2694 47.8612C31.0714 47.9383 30.8468 47.9768 30.5985 47.9768C30.0458 47.9768 29.6113 47.7961 29.301 47.4317C28.9877 47.0673 28.834 46.6586 28.834 46.1994C28.834 45.7669 28.967 45.3848 29.23 45.0471C29.564 44.6176 30.0133 44.4043 30.5748 44.4043C31.1541 44.4043 31.6152 44.6235 31.961 45.0649C32.2063 45.3759 32.3305 45.764 32.3364 46.2261H29.2832C29.2921 46.6201 29.4162 46.9459 29.6616 47.1977C29.9039 47.4495 30.2054 47.5769 30.563 47.5769C30.7344 47.5769 30.9029 47.5472 31.0684 47.488C31.231 47.4287 31.3699 47.3488 31.4852 47.248C31.6004 47.1444 31.7246 46.9844 31.8576 46.7622ZM31.8576 45.8469C31.7985 45.6129 31.7157 45.4263 31.6034 45.287C31.4911 45.1478 31.3462 45.0353 31.163 44.9493C30.9798 44.8634 30.7876 44.822 30.5867 44.822C30.2527 44.822 29.966 44.9286 29.7295 45.1449C29.5552 45.3019 29.4222 45.5359 29.3335 45.8469H31.8576Z" fill="white"/>
<path d="M34.0151 47.2002C34.1215 47.2002 34.2102 47.2387 34.287 47.3128C34.3609 47.3868 34.3993 47.4786 34.3993 47.5883C34.3993 47.6949 34.3609 47.7867 34.287 47.8608C34.2131 47.9378 34.1215 47.9763 34.0151 47.9763C33.9087 47.9763 33.82 47.9378 33.7432 47.8608C33.6693 47.7838 33.6309 47.6949 33.6309 47.5883C33.6309 47.4786 33.6693 47.3898 33.7432 47.3128C33.8171 47.2387 33.9087 47.2002 34.0151 47.2002Z" fill="white"/>
<path d="M37.9121 43.293H40.5396V43.7432H38.3702V45.1829H40.5219V45.6331H38.3702V47.4401H40.5219V47.8904H37.9121V43.293Z" fill="white"/>
<path d="M45.028 43.1777V47.8907H44.5965V47.3071C44.4133 47.5293 44.2093 47.6981 43.9818 47.8107C43.7542 47.9232 43.5059 47.9795 43.234 47.9795C42.7552 47.9795 42.3444 47.8048 42.0045 47.4552C41.6646 47.1057 41.4961 46.6821 41.4961 46.1814C41.4961 45.6927 41.6675 45.272 42.0104 44.9255C42.3532 44.5789 42.767 44.4041 43.2488 44.4041C43.5266 44.4041 43.7778 44.4633 44.0054 44.5818C44.23 44.7003 44.4281 44.8781 44.5995 45.115V43.1777H45.028ZM43.2842 44.8247C43.0419 44.8247 42.8173 44.884 42.6104 45.0054C42.4035 45.1269 42.2409 45.2928 42.1197 45.509C41.9985 45.7253 41.9365 45.9534 41.9365 46.1963C41.9365 46.4362 41.9985 46.6643 42.1197 46.8835C42.2409 47.1027 42.4064 47.2716 42.6133 47.393C42.8202 47.5145 43.0419 47.5767 43.2783 47.5767C43.5177 47.5767 43.7424 47.5174 43.9581 47.396C44.1709 47.2745 44.3364 47.1116 44.4517 46.9072C44.567 46.6998 44.6231 46.4688 44.6231 46.2111C44.6231 45.8171 44.4931 45.4883 44.2359 45.2246C43.9788 44.9551 43.6626 44.8247 43.2842 44.8247Z" fill="white"/>
<path d="M46.3438 44.4903H46.7812V46.078C46.7812 46.4661 46.8019 46.7327 46.8432 46.8778C46.9053 47.0852 47.0235 47.2511 47.2009 47.3725C47.3782 47.494 47.5851 47.5532 47.8304 47.5532C48.0728 47.5532 48.2797 47.494 48.4511 47.3755C48.6196 47.257 48.7378 47.103 48.8028 46.9104C48.8472 46.7801 48.8678 46.5016 48.8678 46.0751V44.4873H49.3141V46.155C49.3141 46.6231 49.2609 46.9756 49.1516 47.2155C49.0422 47.4525 48.8797 47.6391 48.658 47.7724C48.4393 47.9057 48.1644 47.9739 47.8334 47.9739C47.5023 47.9739 47.2275 47.9057 47.0058 47.7724C46.7841 47.6391 46.6186 47.4495 46.5093 47.2096C46.3999 46.9697 46.3467 46.6083 46.3467 46.1225V44.4903H46.3438Z" fill="white"/>
<path d="M53.9551 45.1952L53.6092 45.4115C53.3107 45.0145 52.9029 44.816 52.3856 44.816C51.9718 44.816 51.629 44.9493 51.3571 45.2159C51.0852 45.4826 50.9462 45.8054 50.9462 46.1876C50.9462 46.4364 51.0083 46.6674 51.1354 46.8867C51.2625 47.1059 51.4339 47.2747 51.6526 47.3962C51.8713 47.5176 52.1167 47.5769 52.3886 47.5769C52.8881 47.5769 53.293 47.3784 53.6092 46.9814L53.9551 47.2095C53.7925 47.4554 53.5738 47.645 53.3019 47.7783C53.0299 47.9146 52.7166 47.9797 52.3679 47.9797C51.8329 47.9797 51.3866 47.8079 51.0349 47.4673C50.6832 47.1266 50.5059 46.7089 50.5059 46.2201C50.5059 45.8913 50.5886 45.5862 50.7541 45.3019C50.9196 45.0204 51.1472 44.7983 51.4369 44.6413C51.7265 44.4843 52.0487 44.4043 52.4063 44.4043C52.6309 44.4043 52.8467 44.4398 53.0565 44.508C53.2664 44.5761 53.4437 44.665 53.5886 44.7775C53.7304 44.8842 53.8516 45.0264 53.9551 45.1952Z" fill="white"/>
<path d="M58.5593 44.4902V47.8909H58.1278V47.3073C57.9445 47.5295 57.7406 47.6983 57.513 47.8109C57.2854 47.9234 57.0372 47.9797 56.7652 47.9797C56.2864 47.9797 55.8756 47.8049 55.5357 47.4554C55.1958 47.1059 55.0273 46.6823 55.0273 46.1816C55.0273 45.6929 55.1988 45.2722 55.5416 44.9256C55.8845 44.5791 56.2983 44.4043 56.78 44.4043C57.0578 44.4043 57.3091 44.4635 57.5367 44.582C57.7613 44.7005 57.9593 44.8783 58.1307 45.1152V44.4902H58.5593ZM56.8155 44.8249C56.5731 44.8249 56.3485 44.8842 56.1416 45.0056C55.9347 45.1241 55.7722 45.293 55.651 45.5092C55.5298 45.7255 55.4677 45.9535 55.4677 46.1965C55.4677 46.4364 55.5298 46.6645 55.651 46.8837C55.7722 47.1029 55.9377 47.2717 56.1446 47.3932C56.3515 47.5147 56.5731 47.5769 56.8096 47.5769C57.049 47.5769 57.2736 47.5176 57.4894 47.3962C57.7022 47.2747 57.8677 47.1118 57.9829 46.9074C58.0982 46.7 58.1573 46.469 58.1573 46.2113C58.1573 45.8173 58.0273 45.4885 57.7701 45.2248C57.5101 44.9553 57.1908 44.8249 56.8155 44.8249Z" fill="white"/>
<path d="M60.3031 43.2285H60.7405V44.4904H61.4321V44.8696H60.7405V47.8911H60.3031V44.8696H59.709V44.4904H60.3031V43.2285Z" fill="white"/>
<path d="M65.3263 46.7622L65.6928 46.9548C65.5716 47.1918 65.4327 47.3843 65.276 47.5295C65.1194 47.6746 64.9391 47.7872 64.7411 47.8612C64.5431 47.9383 64.3184 47.9768 64.0702 47.9768C63.5175 47.9768 63.083 47.7961 62.7727 47.4317C62.4623 47.0673 62.3057 46.6586 62.3057 46.1994C62.3057 45.7669 62.4387 45.3848 62.7017 45.0471C63.0357 44.6176 63.485 44.4043 64.0465 44.4043C64.6258 44.4043 65.0869 44.6235 65.4327 45.0649C65.678 45.3759 65.8021 45.764 65.8081 46.2261H62.7549C62.7638 46.6201 62.8879 46.9459 63.1332 47.1977C63.3756 47.4495 63.6771 47.5769 64.0347 47.5769C64.2061 47.5769 64.3746 47.5472 64.5401 47.488C64.7027 47.4287 64.8416 47.3488 64.9568 47.248C65.0692 47.1444 65.1933 46.9844 65.3263 46.7622ZM65.3263 45.8469C65.2672 45.6129 65.1844 45.4263 65.0721 45.287C64.9598 45.1478 64.812 45.0353 64.6317 44.9493C64.4485 44.8634 64.2564 44.822 64.0554 44.822C63.7214 44.822 63.4347 44.9286 63.1983 45.1449C63.0239 45.3019 62.8909 45.5359 62.8022 45.8469H65.3263Z" fill="white"/>
<path d="M67.4809 47.2002C67.5873 47.2002 67.676 47.2387 67.7528 47.3128C67.8267 47.3868 67.8651 47.4786 67.8651 47.5883C67.8651 47.6949 67.8267 47.7867 67.7528 47.8608C67.6789 47.9378 67.5873 47.9763 67.4809 47.9763C67.3745 47.9763 67.2858 47.9378 67.209 47.8608C67.1351 47.7838 67.0967 47.6949 67.0967 47.5883C67.0967 47.4786 67.1351 47.3898 67.209 47.3128C67.2858 47.2387 67.3775 47.2002 67.4809 47.2002Z" fill="white"/>
<path d="M70.8994 47.0346L71.2896 46.8006C71.5644 47.3071 71.8807 47.5589 72.2413 47.5589C72.395 47.5589 72.5398 47.5233 72.6757 47.4522C72.8117 47.3812 72.9151 47.2834 72.9831 47.1619C73.054 47.0405 73.0895 46.9131 73.0895 46.7769C73.0895 46.6228 73.0363 46.4717 72.9329 46.3236C72.788 46.1192 72.528 45.8734 72.1467 45.586C71.7654 45.2957 71.526 45.0884 71.4314 44.958C71.2689 44.7418 71.1891 44.5078 71.1891 44.256C71.1891 44.0575 71.2364 43.8739 71.3309 43.708C71.4255 43.5421 71.5615 43.4147 71.7358 43.3199C71.9102 43.2251 72.0994 43.1777 72.3004 43.1777C72.5161 43.1777 72.7171 43.2311 72.9063 43.3377C73.0954 43.4443 73.2935 43.6428 73.5033 43.9301L73.1279 44.2145C72.9565 43.9864 72.8087 43.8353 72.6876 43.7613C72.5664 43.6872 72.4334 43.6517 72.2885 43.6517C72.1023 43.6517 71.9516 43.708 71.8363 43.8205C71.7181 43.9331 71.659 44.0723 71.659 44.2353C71.659 44.336 71.6797 44.4308 71.7211 44.5256C71.7625 44.6203 71.8393 44.7211 71.9487 44.8307C72.0078 44.8899 72.2058 45.041 72.5398 45.2898C72.9358 45.5831 73.2077 45.8438 73.3555 46.0748C73.5033 46.3029 73.5772 46.534 73.5772 46.765C73.5772 47.0968 73.4501 47.3871 73.1989 47.6329C72.9447 47.8788 72.6403 48.0003 72.2767 48.0003C71.9989 48.0003 71.7447 47.9262 71.5201 47.7781C71.3014 47.6329 71.0915 47.3841 70.8994 47.0346Z" fill="white"/>
<path d="M74.8125 44.4903H75.2499V46.078C75.2499 46.4661 75.2706 46.7327 75.312 46.8778C75.3741 47.0852 75.4923 47.2511 75.6696 47.3725C75.844 47.494 76.0539 47.5532 76.2992 47.5532C76.5415 47.5532 76.7484 47.494 76.9198 47.3755C77.0883 47.257 77.2065 47.103 77.2716 46.9104C77.3159 46.7801 77.3366 46.5016 77.3366 46.0751V44.4873H77.7829V46.155C77.7829 46.6231 77.7297 46.9756 77.6203 47.2155C77.511 47.4525 77.3484 47.6391 77.1267 47.7724C76.908 47.9057 76.6332 47.9739 76.3021 47.9739C75.9711 47.9739 75.6962 47.9057 75.4746 47.7724C75.2529 47.6391 75.0874 47.4495 74.978 47.2096C74.8687 46.9697 74.8155 46.6083 74.8155 46.1225V44.4903H74.8125Z" fill="white"/>
<path d="M82.4267 45.1952L82.0809 45.4115C81.7824 45.0145 81.3745 44.816 80.8573 44.816C80.4435 44.816 80.1007 44.9493 79.8287 45.2159C79.5568 45.4826 79.4179 45.8054 79.4179 46.1876C79.4179 46.4364 79.48 46.6674 79.6071 46.8867C79.7312 47.1059 79.9056 47.2747 80.1243 47.3962C80.343 47.5176 80.5883 47.5769 80.8603 47.5769C81.3598 47.5769 81.7647 47.3784 82.0809 46.9814L82.4267 47.2095C82.2642 47.4554 82.0455 47.645 81.7735 47.7783C81.4987 47.9146 81.1883 47.9797 80.8396 47.9797C80.3046 47.9797 79.8583 47.8079 79.5066 47.4673C79.1519 47.1266 78.9775 46.7089 78.9775 46.2201C78.9775 45.8913 79.0603 45.5862 79.2258 45.3019C79.3913 45.0204 79.6189 44.7983 79.9086 44.6413C80.1982 44.4843 80.5204 44.4043 80.878 44.4043C81.1026 44.4043 81.3184 44.4398 81.5282 44.508C81.7381 44.5761 81.9154 44.665 82.0602 44.7775C82.2021 44.8842 82.3233 45.0264 82.4267 45.1952Z" fill="white"/>
<path d="M86.9394 45.1952L86.5936 45.4115C86.2951 45.0145 85.8872 44.816 85.37 44.816C84.9562 44.816 84.6134 44.9493 84.3415 45.2159C84.0695 45.4826 83.9306 45.8054 83.9306 46.1876C83.9306 46.4364 83.9927 46.6674 84.1198 46.8867C84.2439 47.1059 84.4183 47.2747 84.637 47.3962C84.8557 47.5176 85.101 47.5769 85.373 47.5769C85.8725 47.5769 86.2774 47.3784 86.5936 46.9814L86.9394 47.2095C86.7769 47.4554 86.5582 47.645 86.2862 47.7783C86.0114 47.9146 85.701 47.9797 85.3523 47.9797C84.8173 47.9797 84.371 47.8079 84.0193 47.4673C83.6646 47.1266 83.4902 46.7089 83.4902 46.2201C83.4902 45.8913 83.573 45.5862 83.7385 45.3019C83.904 45.0204 84.1316 44.7983 84.4212 44.6413C84.7109 44.4843 85.0331 44.4043 85.3907 44.4043C85.6153 44.4043 85.8311 44.4398 86.0409 44.508C86.2508 44.5761 86.4281 44.665 86.5729 44.7775C86.7148 44.8842 86.8389 45.0264 86.9394 45.1952Z" fill="white"/>
<path d="M91.0167 46.7622L91.3832 46.9548C91.262 47.1918 91.1231 47.3843 90.9665 47.5295C90.8098 47.6746 90.6295 47.7872 90.4315 47.8612C90.2335 47.9383 90.0089 47.9768 89.7606 47.9768C89.2079 47.9768 88.7734 47.7961 88.4631 47.4317C88.1527 47.0673 87.9961 46.6586 87.9961 46.1994C87.9961 45.7669 88.1291 45.3848 88.3921 45.0471C88.7261 44.6176 89.1754 44.4043 89.7369 44.4043C90.3162 44.4043 90.7773 44.6235 91.1231 45.0649C91.3684 45.3759 91.4926 45.764 91.4985 46.2261H88.4453C88.4542 46.6201 88.5783 46.9459 88.8237 47.1977C89.066 47.4495 89.3675 47.5769 89.7251 47.5769C89.8965 47.5769 90.065 47.5472 90.2305 47.488C90.3931 47.4287 90.532 47.3488 90.6473 47.248C90.7596 47.1444 90.8837 46.9844 91.0167 46.7622ZM91.0167 45.8469C90.9576 45.6129 90.8748 45.4263 90.7625 45.287C90.6502 45.1478 90.5024 45.0353 90.3222 44.9493C90.1389 44.8634 89.9468 44.822 89.7458 44.822C89.4118 44.822 89.1251 44.9286 88.8887 45.1449C88.7143 45.3019 88.5813 45.5359 88.4926 45.8469H91.0167Z" fill="white"/>
<path d="M95.5519 46.7622L95.9184 46.9548C95.7972 47.1918 95.6583 47.3843 95.5016 47.5295C95.345 47.6746 95.1647 47.7872 94.9667 47.8612C94.7686 47.9383 94.544 47.9768 94.2957 47.9768C93.743 47.9768 93.3086 47.7961 92.9982 47.4317C92.6879 47.0673 92.5312 46.6586 92.5312 46.1994C92.5312 45.7669 92.6643 45.3848 92.9273 45.0471C93.2613 44.6176 93.7105 44.4043 94.2721 44.4043C94.8514 44.4043 95.3125 44.6235 95.6583 45.0649C95.9036 45.3759 96.0277 45.764 96.0336 46.2261H92.9805C92.9894 46.6201 93.1135 46.9459 93.3588 47.1977C93.6012 47.4495 93.9027 47.5769 94.2603 47.5769C94.4317 47.5769 94.6002 47.5472 94.7657 47.488C94.9282 47.4287 95.0672 47.3488 95.1824 47.248C95.2947 47.1444 95.4189 46.9844 95.5519 46.7622ZM95.5519 45.8469C95.4928 45.6129 95.41 45.4263 95.2977 45.287C95.1854 45.1478 95.0376 45.0353 94.8573 44.9493C94.6741 44.8634 94.482 44.822 94.281 44.822C93.947 44.822 93.6603 44.9286 93.4238 45.1449C93.2495 45.3019 93.1165 45.5359 93.0278 45.8469H95.5519Z" fill="white"/>
<path d="M100.613 43.1777V47.8907H100.182V47.3071C99.9983 47.5293 99.7943 47.6981 99.5667 47.8107C99.3392 47.9232 99.0909 47.9795 98.819 47.9795C98.3402 47.9795 97.9293 47.8048 97.5894 47.4552C97.2495 47.1057 97.0781 46.6821 97.0781 46.1814C97.0781 45.6927 97.2495 45.272 97.5924 44.9255C97.9352 44.5789 98.349 44.4041 98.8308 44.4041C99.1086 44.4041 99.3628 44.4633 99.5874 44.5818C99.8121 44.7003 100.01 44.8781 100.182 45.115V43.1777H100.613ZM98.8663 44.8247C98.6239 44.8247 98.3993 44.884 98.1924 45.0054C97.9855 45.1239 97.8229 45.2928 97.7018 45.509C97.5806 45.7253 97.5185 45.9534 97.5185 46.1963C97.5185 46.4362 97.5806 46.6643 97.7018 46.8835C97.8229 47.1027 97.9885 47.2716 98.1953 47.393C98.4022 47.5145 98.6239 47.5767 98.8604 47.5767C99.0998 47.5767 99.3244 47.5174 99.5401 47.396C99.7529 47.2745 99.9185 47.1116 100.034 46.9072C100.149 46.6998 100.205 46.4688 100.205 46.2111C100.205 45.8171 100.075 45.4883 99.818 45.2246C99.5638 44.9551 99.2446 44.8247 98.8663 44.8247Z" fill="white"/>
<path d="M102.465 47.2002C102.572 47.2002 102.66 47.2387 102.737 47.3128C102.811 47.3868 102.85 47.4786 102.85 47.5883C102.85 47.6949 102.811 47.7867 102.737 47.8608C102.663 47.9378 102.572 47.9763 102.465 47.9763C102.359 47.9763 102.27 47.9378 102.193 47.8608C102.119 47.7838 102.081 47.6949 102.081 47.5883C102.081 47.4786 102.119 47.3898 102.193 47.3128C102.27 47.2387 102.359 47.2002 102.465 47.2002Z" fill="white"/>
<path d="M104.19 44.6233H103.865L103.797 43.1777H104.258L104.19 44.6233ZM105.402 44.6233H105.08L105.012 43.1777H105.473L105.402 44.6233Z" fill="white"/>
<path d="M17.0775 25.9486C17.0568 26.8106 16.9031 27.5453 16.6075 28.1496C16.3149 28.7568 15.845 29.3433 15.2007 29.9121C15.845 30.4808 16.3149 31.0674 16.6075 31.6746C16.9002 32.2819 17.0568 33.0165 17.0775 33.8756C17.0775 34.7376 16.9179 35.5492 16.5928 36.3135C16.2677 37.0777 15.8273 37.7413 15.2598 38.31C14.6923 38.8788 14.0303 39.3231 13.2677 39.646C12.5052 39.9689 11.6953 40.1318 10.8353 40.1318H7.82053H4.51025H0V19.6953H4.51025H8.90524H10.8382C11.6983 19.6953 12.5081 19.8582 13.2707 20.1811C14.0332 20.504 14.6953 20.9483 15.2627 21.5171C15.8302 22.0858 16.2736 22.7494 16.5957 23.5136C16.9179 24.2749 17.0775 25.0866 17.0775 25.9486ZM12.5672 25.9486C12.5672 25.4776 12.4017 25.0777 12.0677 24.7459C11.7367 24.4142 11.3259 24.2453 10.8382 24.2453H4.51025V27.6519H10.8382C11.3259 27.6519 11.7367 27.486 12.0677 27.1542C12.4017 26.8195 12.5672 26.4166 12.5672 25.9486ZM12.5672 33.8608C12.5672 33.3957 12.4017 33.0017 12.0677 32.6818C11.7367 32.3619 11.3259 32.2019 10.8382 32.2019H4.51025V35.5789H10.8382C11.3259 35.5789 11.7367 35.413 12.0677 35.0842C12.4017 34.7524 12.5672 34.3466 12.5672 33.8608Z" fill="white"/>
<path d="M35.9459 40.1286H31.4061V33.345H24.6082V40.1286H20.0684V19.7217H24.6082V28.795H31.4061V19.7217H35.9459V40.1286Z" fill="white"/>
<path d="M52.7618 40.1289H43.6792H41.4241H39.1689V24.2453V19.6953H43.6792H52.7618V24.2453H43.6792V27.6223H52.7618V32.1723H43.6792V35.5789H52.7618V40.1289Z" fill="white"/>
<path d="M78.2903 19.6934V31.4387C78.2903 32.6324 78.0598 33.7581 77.6016 34.8156C77.1435 35.8731 76.5229 36.7914 75.7426 37.5764C74.9623 38.3584 74.0372 38.9805 72.9732 39.4397C71.9091 39.8988 70.7801 40.1299 69.589 40.1299C68.3772 40.1299 67.2452 39.8988 66.1901 39.4397C65.1349 38.9805 64.2187 38.3584 63.4354 37.5764C62.6551 36.7944 62.0345 35.8731 61.5764 34.8156C61.1182 33.7581 60.8877 32.6324 60.8877 31.4387V19.6934H65.4275V31.4179C65.4275 31.9837 65.5339 32.5228 65.7497 33.0294C65.9654 33.5389 66.2639 33.9832 66.6423 34.3624C67.0235 34.7445 67.4639 35.0407 67.9605 35.257C68.46 35.4732 69.0008 35.5799 69.586 35.5799C70.1535 35.5799 70.6885 35.4732 71.1969 35.257C71.7052 35.0437 72.1485 34.7445 72.5298 34.3624C72.9111 33.9803 73.2096 33.5359 73.4224 33.0294C73.6382 32.5228 73.7446 31.9837 73.7446 31.4179V19.6934H78.2903Z" fill="white"/>
<path d="M97.929 40.1299L85.6248 29.5606V40.1299H81.085V19.6934L93.4187 30.2626V19.6934H97.929V40.1299Z" fill="white"/>
<path d="M105.276 40.1299H100.766V19.6934H105.276V40.1299Z" fill="white"/>
</svg>
