<svg width="122" height="48" viewBox="0 0 122 48" fill="none" xmlns="http://www.w3.org/2000/svg">
<path d="M118.691 18.8665C120.546 19.0591 122 19.2309 122 19.2309L118.733 15.6169C118.747 15.2615 118.765 14.9238 118.789 14.6068C118.936 12.8324 117.822 11.221 117.866 14.6572L107.398 3.08073L79.0562 0L88.6274 10.9692C94.8843 1.10788 107.398 11.0314 107.398 11.0314C99.1775 7.14789 95.1291 7.2723 91.9387 9.49102C88.5094 12.2933 85.6227 17.4624 91.0541 19.9003C96.9041 22.7796 104.65 25.8159 110.957 23.1736L111.019 18.4281C111.632 18.2237 114.938 18.4903 117.766 18.7717C117.948 24.5244 116.689 28.3546 116.663 32.9312C116.663 32.9312 118.954 34.3294 120.015 32.9312C119.523 27.1667 118.582 24.9539 118.691 18.8665ZM109.191 22.0272C108.867 24.8858 88.6156 19.5686 89.7272 16.9144C90.0515 14.0558 110.306 19.376 109.191 22.0272Z" fill="#F37124"/>
<path d="M0.538651 44.6228H0.214302L0.146484 43.1772H0.606469L0.538651 44.6228ZM1.74758 44.6228H1.42618L1.35837 43.1772H1.81835L1.74758 44.6228Z" fill="#515251"/>
<path d="M2.83984 43.293H3.29688V47.8904H2.83984V43.293Z" fill="#515251"/>
<path d="M4.65724 44.4897H5.09364V45.1C5.26761 44.866 5.45927 44.6912 5.67157 44.5757C5.88387 44.4601 6.11386 44.4009 6.36155 44.4009C6.61513 44.4009 6.83922 44.4661 7.03383 44.5934C7.22844 44.7238 7.37587 44.8956 7.46728 45.1148C7.56163 45.334 7.60586 45.6746 7.60586 46.1368V47.8874H7.16947V46.2671C7.16947 45.8761 7.15177 45.6124 7.12229 45.4821C7.07216 45.257 6.97486 45.0881 6.83332 44.9756C6.68884 44.863 6.50308 44.8067 6.27309 44.8067C6.01066 44.8067 5.77477 44.8956 5.56542 45.0703C5.35607 45.2451 5.22043 45.4614 5.15261 45.7191C5.11133 45.8879 5.09069 46.196 5.09069 46.6433V47.8904H4.6543V44.4897H4.65724Z" fill="#515251"/>
<path d="M8.92238 44.4897H9.35878V45.1C9.53275 44.866 9.7244 44.6912 9.93671 44.5757C10.149 44.4601 10.379 44.4009 10.6267 44.4009C10.8803 44.4009 11.1044 44.4661 11.299 44.5934C11.4936 44.7238 11.641 44.8956 11.7324 45.1148C11.8268 45.334 11.871 45.6746 11.871 46.1368V47.8874H11.4346V46.2671C11.4346 45.8761 11.4169 45.6124 11.3874 45.4821C11.3373 45.257 11.24 45.0881 11.0985 44.9756C10.954 44.863 10.7682 44.8067 10.5382 44.8067C10.2758 44.8067 10.0399 44.8956 9.83056 45.0703C9.6212 45.2451 9.48557 45.4614 9.41775 45.7191C9.37647 45.8879 9.35583 46.196 9.35583 46.6433V47.8904H8.91943V44.4897H8.92238Z" fill="#515251"/>
<path d="M14.7911 44.4009C15.313 44.4009 15.7435 44.5905 16.0885 44.9696C16.4011 45.3162 16.5544 45.725 16.5544 46.199C16.5544 46.6729 16.3893 47.0906 16.062 47.4431C15.7318 47.7986 15.3101 47.9763 14.7911 47.9763C14.2722 47.9763 13.8476 47.7986 13.5173 47.4431C13.1871 47.0876 13.022 46.6729 13.022 46.199C13.022 45.728 13.1782 45.3192 13.4879 44.9756C13.8358 44.5934 14.2692 44.4009 14.7911 44.4009ZM14.7911 44.8304C14.4285 44.8304 14.1189 44.9637 13.8564 45.2333C13.597 45.5028 13.4672 45.8257 13.4672 46.2078C13.4672 46.4537 13.5262 46.6818 13.6441 46.8951C13.7621 47.1084 13.9243 47.2713 14.1248 47.3868C14.3253 47.5023 14.5494 47.5616 14.7882 47.5616C15.03 47.5616 15.2511 47.5023 15.4516 47.3868C15.6521 47.2713 15.8143 47.1084 15.9323 46.8951C16.0502 46.6818 16.1092 46.4537 16.1092 46.2078C16.1092 45.8257 15.9794 45.5028 15.717 45.2333C15.4605 44.9637 15.1509 44.8304 14.7911 44.8304Z" fill="#515251"/>
<path d="M17.4243 44.4897H17.8872L19.0225 46.9691L20.1459 44.4897H20.6118L19.0637 47.8904H18.9841L17.4243 44.4897Z" fill="#515251"/>
<path d="M25.0319 44.4897V47.8904H24.6014V47.3068C24.4186 47.529 24.2151 47.6978 23.9881 47.8104C23.761 47.923 23.5134 47.9792 23.2421 47.9792C22.7644 47.9792 22.3546 47.8045 22.0155 47.4549C21.6764 47.1054 21.5083 46.6818 21.5083 46.1812C21.5083 45.6924 21.6793 45.2717 22.0214 44.9252C22.3634 44.5786 22.7762 44.4038 23.2568 44.4038C23.534 44.4038 23.7846 44.4631 24.0117 44.5815C24.2358 44.7 24.4333 44.8778 24.6043 45.1147V44.4897H25.0319ZM23.2922 44.8244C23.0504 44.8244 22.8263 44.8837 22.6199 45.0051C22.4135 45.1236 22.2514 45.2925 22.1305 45.5087C22.0096 45.725 21.9476 45.9531 21.9476 46.196C21.9476 46.4359 22.0096 46.664 22.1305 46.8832C22.2514 47.1024 22.4165 47.2713 22.6229 47.3927C22.8293 47.5142 23.0504 47.5764 23.2863 47.5764C23.5252 47.5764 23.7492 47.5171 23.9645 47.3957C24.1768 47.2742 24.3419 47.1113 24.4569 46.9069C24.5719 46.6995 24.6309 46.4685 24.6309 46.2108C24.6309 45.8168 24.5011 45.488 24.2446 45.2243C23.9851 44.9548 23.6667 44.8244 23.2922 44.8244Z" fill="#515251"/>
<path d="M26.768 43.2278H27.2044V44.4897H27.8943V44.8689H27.2044V47.8903H26.768V44.8689H26.1753V44.4897H26.768V43.2278Z" fill="#515251"/>
<path d="M31.7825 46.7618L32.1482 46.9543C32.0273 47.1913 31.8887 47.3838 31.7295 47.529C31.5732 47.6741 31.3933 47.7867 31.1958 47.8607C30.9982 47.9378 30.7741 47.9763 30.5264 47.9763C29.975 47.9763 29.5416 47.7956 29.232 47.4312C28.9194 47.0669 28.7661 46.6581 28.7661 46.1989C28.7661 45.7664 28.8988 45.3843 29.1612 45.0466C29.4944 44.6171 29.9426 44.4038 30.5028 44.4038C31.0808 44.4038 31.5408 44.623 31.8858 45.0644C32.1305 45.3754 32.2543 45.7635 32.2602 46.2256H29.2143C29.2231 46.6196 29.347 46.9454 29.5917 47.1972C29.8335 47.449 30.1343 47.5764 30.4911 47.5764C30.6621 47.5764 30.8301 47.5467 30.9953 47.4875C31.1574 47.4283 31.296 47.3483 31.411 47.2476C31.526 47.1439 31.6499 46.9839 31.7825 46.7618ZM31.7825 45.8464C31.7236 45.6124 31.641 45.4258 31.529 45.2866C31.4169 45.1473 31.2724 45.0348 31.0896 44.9489C30.9068 44.863 30.7151 44.8215 30.5146 44.8215C30.1814 44.8215 29.8954 44.9281 29.6595 45.1444C29.4856 45.3014 29.3529 45.5354 29.2644 45.8464H31.7825Z" fill="#515251"/>
<path d="M33.9351 47.2002C34.0412 47.2002 34.1297 47.2387 34.2064 47.3128C34.2801 47.3868 34.3184 47.4786 34.3184 47.5883C34.3184 47.6949 34.2801 47.7867 34.2064 47.8608C34.1326 47.9378 34.0412 47.9763 33.9351 47.9763C33.8289 47.9763 33.7405 47.9378 33.6638 47.8608C33.5901 47.7838 33.5518 47.6949 33.5518 47.5883C33.5518 47.4786 33.5901 47.3898 33.6638 47.3128C33.7375 47.2387 33.8289 47.2002 33.9351 47.2002Z" fill="#515251"/>
<path d="M37.8228 43.293H40.4441V43.7432H38.2798V45.1829H40.4264V45.6331H38.2798V47.4401H40.4264V47.8904H37.8228V43.293Z" fill="#515251"/>
<path d="M44.9225 43.1772V47.8902H44.492V47.3066C44.3092 47.5288 44.1058 47.6976 43.8787 47.8102C43.6517 47.9228 43.404 47.979 43.1327 47.979C42.655 47.979 42.2452 47.8043 41.9061 47.4547C41.567 47.1052 41.3989 46.6816 41.3989 46.181C41.3989 45.6922 41.5699 45.2715 41.912 44.925C42.254 44.5784 42.6668 44.4036 43.1475 44.4036C43.4246 44.4036 43.6753 44.4629 43.9023 44.5813C44.1264 44.6998 44.324 44.8776 44.495 45.1146V43.1772H44.9225ZM43.1828 44.8243C42.9411 44.8243 42.717 44.8835 42.5106 45.0049C42.3042 45.1264 42.142 45.2923 42.0211 45.5085C41.9002 45.7248 41.8383 45.9529 41.8383 46.1958C41.8383 46.4357 41.9002 46.6638 42.0211 46.883C42.142 47.1022 42.3071 47.2711 42.5135 47.3925C42.7199 47.514 42.9411 47.5762 43.1769 47.5762C43.4158 47.5762 43.6399 47.5169 43.8551 47.3955C44.0674 47.274 44.2325 47.1111 44.3475 46.9067C44.4625 46.6994 44.5186 46.4683 44.5186 46.2106C44.5186 45.8166 44.3888 45.4878 44.1323 45.2242C43.8758 44.9546 43.5603 44.8243 43.1828 44.8243Z" fill="#515251"/>
<path d="M46.2339 44.4898H46.6703V46.0775C46.6703 46.4656 46.6909 46.7322 46.7322 46.8773C46.7941 47.0847 46.9121 47.2506 47.089 47.372C47.2659 47.4935 47.4723 47.5527 47.717 47.5527C47.9588 47.5527 48.1652 47.4935 48.3363 47.375C48.5043 47.2565 48.6223 47.1025 48.6871 46.9099C48.7314 46.7796 48.752 46.5011 48.752 46.0746V44.4868H49.1972V46.1546C49.1972 46.6226 49.1442 46.9751 49.0351 47.215C48.926 47.452 48.7638 47.6386 48.5427 47.7719C48.3245 47.9052 48.0502 47.9734 47.72 47.9734C47.3897 47.9734 47.1155 47.9052 46.8944 47.7719C46.6732 47.6386 46.5081 47.4491 46.399 47.2091C46.2899 46.9692 46.2368 46.6078 46.2368 46.122V44.4898H46.2339Z" fill="#515251"/>
<path d="M53.8278 45.1947L53.4828 45.411C53.185 45.014 52.778 44.8156 52.262 44.8156C51.8492 44.8156 51.5072 44.9489 51.2359 45.2155C50.9646 45.4821 50.8261 45.8049 50.8261 46.1871C50.8261 46.4359 50.888 46.667 51.0148 46.8862C51.1416 47.1054 51.3126 47.2742 51.5308 47.3957C51.749 47.5171 51.9937 47.5764 52.265 47.5764C52.7633 47.5764 53.1673 47.3779 53.4828 46.981L53.8278 47.209C53.6656 47.4549 53.4474 47.6445 53.1761 47.7778C52.9048 47.9141 52.5923 47.9792 52.2443 47.9792C51.7106 47.9792 51.2654 47.8074 50.9145 47.4668C50.5636 47.1261 50.3867 46.7084 50.3867 46.2197C50.3867 45.8909 50.4693 45.5857 50.6344 45.3014C50.7995 45.02 51.0266 44.7978 51.3155 44.6408C51.6045 44.4838 51.9259 44.4038 52.2827 44.4038C52.5068 44.4038 52.722 44.4394 52.9314 44.5075C53.1407 44.5756 53.3176 44.6645 53.4621 44.777C53.6037 44.8837 53.7246 45.0259 53.8278 45.1947Z" fill="#515251"/>
<path d="M58.4215 44.4897V47.8904H57.991V47.3068C57.8082 47.529 57.6048 47.6978 57.3777 47.8104C57.1507 47.923 56.903 47.9792 56.6317 47.9792C56.1541 47.9792 55.7442 47.8045 55.4051 47.4549C55.066 47.1054 54.8979 46.6818 54.8979 46.1812C54.8979 45.6924 55.069 45.2717 55.411 44.9252C55.753 44.5786 56.1659 44.4038 56.6465 44.4038C56.9237 44.4038 57.1743 44.4631 57.4013 44.5815C57.6254 44.7 57.823 44.8778 57.994 45.1147V44.4897H58.4215ZM56.6819 44.8244C56.4401 44.8244 56.216 44.8837 56.0096 45.0051C55.8032 45.1236 55.641 45.2925 55.5201 45.5087C55.3992 45.725 55.3373 45.9531 55.3373 46.196C55.3373 46.4359 55.3992 46.664 55.5201 46.8832C55.641 47.1024 55.8061 47.2713 56.0125 47.3927C56.2189 47.5142 56.4401 47.5764 56.676 47.5764C56.9148 47.5764 57.1389 47.5171 57.3541 47.3957C57.5664 47.2742 57.7316 47.1113 57.8466 46.9069C57.9616 46.6995 58.0205 46.4685 58.0205 46.2108C58.0205 45.8168 57.8908 45.488 57.6343 45.2243C57.3748 44.9548 57.0563 44.8244 56.6819 44.8244Z" fill="#515251"/>
<path d="M60.1605 43.2278H60.5969V44.4897H61.2869V44.8689H60.5969V47.8903H60.1605V44.8689H59.5679V44.4897H60.1605V43.2278Z" fill="#515251"/>
<path d="M65.1722 46.7618L65.5378 46.9543C65.4169 47.1913 65.2783 47.3838 65.1221 47.529C64.9658 47.6741 64.7859 47.7867 64.5883 47.8607C64.3908 47.9378 64.1667 47.9763 63.919 47.9763C63.3676 47.9763 62.9342 47.7956 62.6246 47.4312C62.315 47.0669 62.1587 46.6581 62.1587 46.1989C62.1587 45.7664 62.2914 45.3843 62.5538 45.0466C62.887 44.6171 63.3352 44.4038 63.8954 44.4038C64.4734 44.4038 64.9333 44.623 65.2783 45.0644C65.5231 45.3754 65.6469 45.7635 65.6528 46.2256H62.6069C62.6157 46.6196 62.7396 46.9454 62.9843 47.1972C63.2261 47.449 63.5268 47.5764 63.8836 47.5764C64.0546 47.5764 64.2227 47.5467 64.3878 47.4875C64.55 47.4283 64.6886 47.3483 64.8036 47.2476C64.9156 47.1439 65.0395 46.9839 65.1722 46.7618ZM65.1722 45.8464C65.1132 45.6124 65.0306 45.4258 64.9186 45.2866C64.8065 45.1473 64.6591 45.0348 64.4793 44.9489C64.2964 44.863 64.1048 44.8215 63.9043 44.8215C63.5711 44.8215 63.2851 44.9281 63.0492 45.1444C62.8752 45.3014 62.7425 45.5354 62.6541 45.8464H65.1722Z" fill="#515251"/>
<path d="M67.3213 47.2002C67.4275 47.2002 67.5159 47.2387 67.5926 47.3128C67.6663 47.3868 67.7046 47.4786 67.7046 47.5883C67.7046 47.6949 67.6663 47.7867 67.5926 47.8608C67.5189 47.9378 67.4275 47.9763 67.3213 47.9763C67.2152 47.9763 67.1267 47.9378 67.05 47.8608C66.9763 47.7838 66.938 47.6949 66.938 47.5883C66.938 47.4786 66.9763 47.3898 67.05 47.3128C67.1267 47.2387 67.2181 47.2002 67.3213 47.2002Z" fill="#515251"/>
<path d="M70.7324 47.0341L71.1216 46.8001C71.3959 47.3066 71.7114 47.5584 72.0711 47.5584C72.2244 47.5584 72.3689 47.5229 72.5045 47.4518C72.6402 47.3807 72.7434 47.2829 72.8112 47.1615C72.882 47.04 72.9173 46.9126 72.9173 46.7764C72.9173 46.6223 72.8643 46.4713 72.7611 46.3231C72.6166 46.1188 72.3571 45.8729 71.9767 45.5855C71.5964 45.2952 71.3575 45.0879 71.2632 44.9576C71.101 44.7413 71.0214 44.5073 71.0214 44.2555C71.0214 44.057 71.0686 43.8734 71.1629 43.7075C71.2573 43.5416 71.3929 43.4142 71.5669 43.3194C71.7408 43.2246 71.9296 43.1772 72.1301 43.1772C72.3453 43.1772 72.5458 43.2306 72.7345 43.3372C72.9232 43.4438 73.1208 43.6423 73.3302 43.9297L72.9557 44.214C72.7847 43.9859 72.6372 43.8349 72.5163 43.7608C72.3954 43.6867 72.2627 43.6512 72.1183 43.6512C71.9325 43.6512 71.7821 43.7075 71.6671 43.8201C71.5492 43.9326 71.4902 44.0718 71.4902 44.2348C71.4902 44.3355 71.5109 44.4303 71.5521 44.5251C71.5934 44.6199 71.6701 44.7206 71.7792 44.8302C71.8381 44.8894 72.0357 45.0405 72.3689 45.2893C72.764 45.5826 73.0353 45.8433 73.1827 46.0743C73.3302 46.3024 73.4039 46.5335 73.4039 46.7645C73.4039 47.0963 73.2771 47.3866 73.0264 47.6325C72.7729 47.8783 72.4692 47.9998 72.1065 47.9998C71.8293 47.9998 71.5757 47.9257 71.3516 47.7776C71.1334 47.6325 70.9241 47.3836 70.7324 47.0341Z" fill="#515251"/>
<path d="M74.6353 44.4898H75.0717V46.0775C75.0717 46.4656 75.0923 46.7322 75.1336 46.8773C75.1955 47.0847 75.3134 47.2506 75.4904 47.372C75.6643 47.4935 75.8737 47.5527 76.1184 47.5527C76.3602 47.5527 76.5666 47.4935 76.7376 47.375C76.9057 47.2565 77.0236 47.1025 77.0885 46.9099C77.1327 46.7796 77.1534 46.5011 77.1534 46.0746V44.4868H77.5986V46.1546C77.5986 46.6226 77.5455 46.9751 77.4364 47.215C77.3273 47.452 77.1652 47.6386 76.944 47.7719C76.7258 47.9052 76.4516 47.9734 76.1214 47.9734C75.7911 47.9734 75.5169 47.9052 75.2958 47.7719C75.0746 47.6386 74.9095 47.4491 74.8004 47.2091C74.6913 46.9692 74.6382 46.6078 74.6382 46.122V44.4898H74.6353Z" fill="#515251"/>
<path d="M82.2325 45.1947L81.8876 45.411C81.5897 45.014 81.1828 44.8156 80.6668 44.8156C80.254 44.8156 79.912 44.9489 79.6407 45.2155C79.3694 45.4821 79.2308 45.8049 79.2308 46.1871C79.2308 46.4359 79.2928 46.667 79.4196 46.8862C79.5434 47.1054 79.7174 47.2742 79.9356 47.3957C80.1538 47.5171 80.3985 47.5764 80.6698 47.5764C81.1681 47.5764 81.572 47.3779 81.8876 46.981L82.2325 47.209C82.0704 47.4549 81.8522 47.6445 81.5809 47.7778C81.3067 47.9141 80.9971 47.9792 80.6491 47.9792C80.1154 47.9792 79.6702 47.8074 79.3193 47.4668C78.9655 47.1261 78.7915 46.7084 78.7915 46.2197C78.7915 45.8909 78.8741 45.5857 79.0392 45.3014C79.2043 45.02 79.4314 44.7978 79.7203 44.6408C80.0093 44.4838 80.3307 44.4038 80.6875 44.4038C80.9116 44.4038 81.1268 44.4394 81.3362 44.5075C81.5455 44.5756 81.7224 44.6645 81.8669 44.777C82.0084 44.8837 82.1293 45.0259 82.2325 45.1947Z" fill="#515251"/>
<path d="M86.734 45.1947L86.389 45.411C86.0912 45.014 85.6843 44.8156 85.1683 44.8156C84.7555 44.8156 84.4134 44.9489 84.1422 45.2155C83.8709 45.4821 83.7323 45.8049 83.7323 46.1871C83.7323 46.4359 83.7942 46.667 83.921 46.8862C84.0449 47.1054 84.2188 47.2742 84.437 47.3957C84.6552 47.5171 84.9 47.5764 85.1712 47.5764C85.6696 47.5764 86.0735 47.3779 86.389 46.981L86.734 47.209C86.5718 47.4549 86.3536 47.6445 86.0824 47.7778C85.8081 47.9141 85.4985 47.9792 85.1506 47.9792C84.6169 47.9792 84.1717 47.8074 83.8208 47.4668C83.4669 47.1261 83.293 46.7084 83.293 46.2197C83.293 45.8909 83.3755 45.5857 83.5407 45.3014C83.7058 45.02 83.9328 44.7978 84.2218 44.6408C84.5107 44.4838 84.8321 44.4038 85.1889 44.4038C85.413 44.4038 85.6283 44.4394 85.8376 44.5075C86.047 44.5756 86.2239 44.6645 86.3684 44.777C86.5099 44.8837 86.6337 45.0259 86.734 45.1947Z" fill="#515251"/>
<path d="M90.8021 46.7618L91.1677 46.9543C91.0468 47.1913 90.9082 47.3838 90.7519 47.529C90.5957 47.6741 90.4158 47.7867 90.2182 47.8607C90.0207 47.9378 89.7966 47.9763 89.5489 47.9763C88.9975 47.9763 88.5641 47.7956 88.2545 47.4312C87.9448 47.0669 87.7886 46.6581 87.7886 46.1989C87.7886 45.7664 87.9213 45.3843 88.1837 45.0466C88.5169 44.6171 88.9651 44.4038 89.5253 44.4038C90.1032 44.4038 90.5632 44.623 90.9082 45.0644C91.1529 45.3754 91.2768 45.7635 91.2827 46.2256H88.2368C88.2456 46.6196 88.3694 46.9454 88.6142 47.1972C88.856 47.449 89.1567 47.5764 89.5135 47.5764C89.6845 47.5764 89.8526 47.5467 90.0177 47.4875C90.1799 47.4283 90.3185 47.3483 90.4335 47.2476C90.5455 47.1439 90.6694 46.9839 90.8021 46.7618ZM90.8021 45.8464C90.7431 45.6124 90.6605 45.4258 90.5485 45.2866C90.4364 45.1473 90.289 45.0348 90.1091 44.9489C89.9263 44.863 89.7347 44.8215 89.5341 44.8215C89.201 44.8215 88.9149 44.9281 88.6791 45.1444C88.5051 45.3014 88.3724 45.5354 88.2839 45.8464H90.8021Z" fill="#515251"/>
<path d="M95.3255 46.7618L95.6911 46.9543C95.5702 47.1913 95.4316 47.3838 95.2754 47.529C95.1191 47.6741 94.9392 47.7867 94.7417 47.8607C94.5441 47.9378 94.32 47.9763 94.0723 47.9763C93.5209 47.9763 93.0875 47.7956 92.7779 47.4312C92.4683 47.0669 92.312 46.6581 92.312 46.1989C92.312 45.7664 92.4447 45.3843 92.7071 45.0466C93.0403 44.6171 93.4885 44.4038 94.0488 44.4038C94.6267 44.4038 95.0867 44.623 95.4316 45.0644C95.6764 45.3754 95.8002 45.7635 95.8061 46.2256H92.7602C92.769 46.6196 92.8929 46.9454 93.1376 47.1972C93.3794 47.449 93.6802 47.5764 94.037 47.5764C94.208 47.5764 94.376 47.5467 94.5412 47.4875C94.7033 47.4283 94.8419 47.3483 94.9569 47.2476C95.069 47.1439 95.1928 46.9839 95.3255 46.7618ZM95.3255 45.8464C95.2665 45.6124 95.184 45.4258 95.0719 45.2866C94.9599 45.1473 94.8124 45.0348 94.6326 44.9489C94.4498 44.863 94.2581 44.8215 94.0576 44.8215C93.7244 44.8215 93.4384 44.9281 93.2025 45.1444C93.0285 45.3014 92.8958 45.5354 92.8074 45.8464H95.3255Z" fill="#515251"/>
<path d="M100.375 43.1772V47.8902H99.9442V47.3066C99.7614 47.5288 99.5579 47.6976 99.3309 47.8102C99.1038 47.9228 98.8561 47.979 98.5849 47.979C98.1072 47.979 97.6973 47.8043 97.3582 47.4547C97.0192 47.1052 96.8481 46.6816 96.8481 46.181C96.8481 45.6922 97.0192 45.2715 97.3612 44.925C97.7032 44.5784 98.116 44.4036 98.5967 44.4036C98.8738 44.4036 99.1274 44.4629 99.3515 44.5813C99.5756 44.6998 99.7732 44.8776 99.9442 45.1146V43.1772H100.375ZM98.6321 44.8243C98.3903 44.8243 98.1662 44.8835 97.9598 45.0049C97.7534 45.1234 97.5912 45.2923 97.4703 45.5085C97.3494 45.7248 97.2875 45.9529 97.2875 46.1958C97.2875 46.4357 97.3494 46.6638 97.4703 46.883C97.5912 47.1022 97.7563 47.2711 97.9627 47.3925C98.1691 47.514 98.3903 47.5762 98.6262 47.5762C98.865 47.5762 99.0891 47.5169 99.3043 47.3955C99.5166 47.274 99.6818 47.1111 99.7968 46.9067C99.9118 46.6994 99.9678 46.4683 99.9678 46.2106C99.9678 45.8166 99.838 45.4878 99.5815 45.2242C99.3279 44.9546 99.0095 44.8243 98.6321 44.8243Z" fill="#515251"/>
<path d="M102.223 47.2002C102.329 47.2002 102.418 47.2387 102.494 47.3128C102.568 47.3868 102.606 47.4786 102.606 47.5883C102.606 47.6949 102.568 47.7867 102.494 47.8608C102.421 47.9378 102.329 47.9763 102.223 47.9763C102.117 47.9763 102.029 47.9378 101.952 47.8608C101.878 47.7838 101.84 47.6949 101.84 47.5883C101.84 47.4786 101.878 47.3898 101.952 47.3128C102.029 47.2387 102.117 47.2002 102.223 47.2002Z" fill="#515251"/>
<path d="M103.943 44.6228H103.619L103.551 43.1772H104.011L103.943 44.6228ZM105.152 44.6228H104.831L104.763 43.1772H105.223L105.152 44.6228Z" fill="#515251"/>
<path d="M17.0371 25.9494C17.0165 26.8114 16.8631 27.546 16.5683 28.1503C16.2764 28.7576 15.8075 29.3441 15.1647 29.9129C15.8075 30.4816 16.2764 31.0681 16.5683 31.6754C16.8602 32.2827 17.0165 33.0173 17.0371 33.8763C17.0371 34.7384 16.8779 35.55 16.5535 36.3143C16.2292 37.0785 15.7898 37.7421 15.2237 38.3108C14.6576 38.8796 13.9971 39.3239 13.2363 39.6468C12.4756 39.9697 11.6677 40.1326 10.8096 40.1326H7.80204H4.49959H0V19.6961H4.49959H8.88418H10.8126C11.6706 19.6961 12.4785 19.859 13.2393 20.1819C14 20.5048 14.6605 20.9491 15.2267 21.5179C15.7928 22.0866 16.2351 22.7502 16.5565 23.5144C16.8779 24.2757 17.0371 25.0874 17.0371 25.9494ZM12.5375 25.9494C12.5375 25.4784 12.3724 25.0785 12.0392 24.7467C11.709 24.4149 11.2991 24.2461 10.8126 24.2461H4.49959V27.6527H10.8126C11.2991 27.6527 11.709 27.4868 12.0392 27.155C12.3724 26.8203 12.5375 26.4174 12.5375 25.9494ZM12.5375 33.8615C12.5375 33.3965 12.3724 33.0025 12.0392 32.6826C11.709 32.3626 11.2991 32.2027 10.8126 32.2027H4.49959V35.5796H10.8126C11.2991 35.5796 11.709 35.4137 12.0392 35.0849C12.3724 34.7532 12.5375 34.3473 12.5375 33.8615Z" fill="#243B79"/>
<path d="M35.8615 40.1296H31.3324V33.3461H24.5506V40.1296H20.0215V19.7227H24.5506V28.7961H31.3324V19.7227H35.8615V40.1296Z" fill="#243B79"/>
<path d="M52.6369 40.1296H43.5758H41.326H39.0762V24.2461V19.6961H43.5758H52.6369V24.2461H43.5758V27.623H52.6369V32.1731H43.5758V35.5796H52.6369V40.1296Z" fill="#243B79"/>
<path d="M78.1051 19.693V31.4383C78.1051 32.632 77.8751 33.7577 77.4181 34.8152C76.961 35.8727 76.3418 36.791 75.5634 37.576C74.785 38.3581 73.862 38.9801 72.8005 39.4393C71.739 39.8984 70.6127 40.1295 69.4244 40.1295C68.2154 40.1295 67.0861 39.8984 66.0335 39.4393C64.9808 38.9801 64.0667 38.3581 63.2854 37.576C62.5069 36.794 61.8877 35.8727 61.4307 34.8152C60.9736 33.7577 60.7437 32.632 60.7437 31.4383V19.693H65.2727V31.4175C65.2727 31.9833 65.3789 32.5224 65.5941 33.029C65.8094 33.5385 66.1072 33.9828 66.4846 34.362C66.865 34.7441 67.3043 35.0403 67.7997 35.2566C68.298 35.4728 68.8376 35.5795 69.4214 35.5795C69.9876 35.5795 70.5213 35.4728 71.0284 35.2566C71.5356 35.0433 71.9779 34.7441 72.3583 34.362C72.7386 33.9799 73.0364 33.5355 73.2487 33.029C73.464 32.5224 73.5701 31.9833 73.5701 31.4175V19.693H78.1051Z" fill="#263A7F"/>
<path d="M97.6972 40.1294L85.4221 29.5601V40.1294H80.8931V19.6929L93.1976 30.2622V19.6929H97.6972V40.1294Z" fill="#263A7F"/>
<path d="M105.027 40.1294H100.527V19.6929H105.027V40.1294Z" fill="#263A7F"/>
</svg>
